<?xml version="1.0" standalone="no"?><!DOCTYPE svg PUBLIC "-//W3C//DTD SVG 1.1//EN" "http://www.w3.org/Graphics/SVG/1.1/DTD/svg11.dtd"><svg height="1024" node-id="1" sillyvg="true" template-height="1024" template-width="1024" version="1.1" viewBox="0 0 1024 1024" width="1024" xmlns="http://www.w3.org/2000/svg" xmlns:xlink="http://www.w3.org/1999/xlink"><defs node-id="160"></defs><g node-id="588"><g node-id="627"><g node-id="666"><path d="M 237.60 291.90 L 233.39 283.46 L 232.80 274.30 L 235.56 265.87 L 241.60 258.70 L 250.04 254.49 L 259.20 253.90 L 267.90 256.70 L 274.80 262.70 L 336.40 341.90 L 339.31 347.42 L 340.00 353.50 L 338.13 358.95 L 334.00 363.50 L 328.48 366.41 L 322.40 367.10 L 316.61 365.21 L 312.00 361.10 L 254.00 286.30 L 251.34 284.51 L 248.00 285.50 L 246.30 288.67 L 247.60 291.50 L 305.60 366.30 L 312.56 372.28 L 321.60 375.10 L 330.76 374.51 L 339.20 370.30 L 345.18 363.34 L 348.00 354.30 L 347.41 345.14 L 343.20 336.70 L 281.60 257.50 L 272.32 249.31 L 260.40 245.50 L 247.53 246.32 L 236.40 251.90 L 228.49 260.93 L 224.40 273.50 L 225.53 286.30 L 231.20 297.10 L 301.20 386.70 L 308.14 393.97 L 316.80 398.88 L 327.60 401.50 L 332.40 401.90 L 345.29 399.80 L 356.80 393.50 L 364.37 386.06 L 369.38 377.24 L 372.00 366.70 L 371.95 356.10 L 369.18 346.49 L 363.60 337.50 L 322.00 283.90 L 318.80 281.89 L 316.00 283.10 L 314.00 286.04 L 315.20 289.10 L 357.20 342.70 L 362.81 353.73 L 363.60 365.90 L 359.55 377.78 L 351.60 386.70 L 340.85 392.38 L 328.40 393.50 L 317.09 389.75 L 307.60 381.50 L 237.60 291.90 Z" fill="#d82426" fill-rule="nonzero" group-id="1,40,79" node-id="168" stroke="none" target-height="156.4" target-width="147.6" target-x="224.4" target-y="245.5"></path></g></g></g><g node-id="589"><g node-id="628"><g node-id="667"><path d="M 484.00 724.70 L 476.69 732.07 L 472.57 739.97 L 471.20 748.70 L 472.57 757.43 L 476.69 765.33 L 484.00 772.70 L 492.98 778.20 L 503.14 781.54 L 514.80 782.70 L 526.46 781.54 L 536.62 778.20 L 545.60 772.70 L 552.91 765.33 L 557.03 757.43 L 558.40 748.70 L 557.03 739.97 L 552.91 732.07 L 545.60 724.70 L 536.62 719.20 L 526.46 715.86 L 514.80 714.70 L 503.14 715.86 L 492.98 719.20 L 484.00 724.70 Z" fill="#0f8481" fill-rule="nonzero" group-id="2,41,80" node-id="179" stroke="none" target-height="68" target-width="87.20001" target-x="471.2" target-y="714.7"></path></g></g></g><g node-id="590"><g node-id="629"><g node-id="668"><path d="M 961.20 769.90 L 950.00 201.90 L 77.60 201.90 L 62.80 769.90 L 961.20 769.90 Z" fill="#0f8481" fill-rule="nonzero" group-id="3,42,81" node-id="190" stroke="none" target-height="568" target-width="898.4" target-x="62.8" target-y="201.9"></path></g></g></g><g node-id="591"><g node-id="630"><g node-id="669"><path d="M 490.00 729.90 L 484.07 735.57 L 480.72 741.74 L 479.60 748.70 L 480.72 755.66 L 484.07 761.83 L 490.00 767.50 L 500.97 773.43 L 514.80 775.50 L 528.63 773.42 L 539.60 767.50 L 545.53 761.83 L 548.88 755.66 L 550.00 748.70 L 548.88 741.74 L 545.53 735.56 L 539.60 729.90 L 528.63 723.98 L 514.80 721.90 L 500.97 723.98 L 490.00 729.90 Z" fill="#b4b4b4" fill-rule="nonzero" group-id="4,43,82" node-id="201" stroke="none" target-height="53.599976" target-width="70.399994" target-x="479.6" target-y="721.9"></path></g></g></g><g node-id="592"><g node-id="631"><g node-id="670"><path d="M 648.00 178.30 L 615.66 178.53 L 584.13 182.40 L 553.20 189.90 L 516.80 203.90 L 517.09 226.29 L 516.40 477.50 L 514.80 749.90 L 536.00 739.10 L 565.32 730.09 L 598.00 725.10 L 648.17 723.54 L 717.47 726.01 L 810.40 733.90 L 877.28 741.93 L 933.20 749.90 L 933.20 205.90 L 742.21 185.65 L 648.00 178.30 Z" fill="#e7e5e5" fill-rule="nonzero" group-id="5,44,83" node-id="212" stroke="none" target-height="571.60004" target-width="418.40002" target-x="514.8" target-y="178.3"></path></g></g></g><g node-id="593"><g node-id="632"><g node-id="671"><path d="M 810.40 733.90 L 717.47 726.01 L 648.17 723.54 L 598.00 725.10 L 565.32 730.09 L 536.00 739.10 L 514.80 749.90 L 514.80 755.90 L 933.20 755.90 L 933.20 749.90 L 877.28 741.93 L 810.40 733.90 Z" fill="#b4b4b4" fill-rule="nonzero" group-id="6,45,84" node-id="223" stroke="none" target-height="32.360046" target-width="418.40002" target-x="514.8" target-y="723.54"></path></g></g></g><g node-id="594"><g node-id="633"><g node-id="672"><path d="M 477.60 190.70 L 445.08 182.94 L 412.61 178.96 L 380.00 178.70 L 286.34 186.05 L 96.80 206.30 L 96.80 750.30 L 152.67 742.33 L 219.20 734.30 L 311.84 726.42 L 381.19 723.94 L 431.60 725.50 L 464.28 730.49 L 493.60 739.50 L 506.62 745.37 L 514.80 750.30 L 514.80 478.30 L 515.58 227.46 L 516.00 205.10 L 500.26 198.10 L 477.60 190.70 Z" fill="#e2e0df" fill-rule="nonzero" group-id="7,46,85" node-id="234" stroke="none" target-height="571.6" target-width="419.2" target-x="96.8" target-y="178.7"></path></g></g></g><g node-id="595"><g node-id="634"><g node-id="673"><path d="M 96.80 750.30 L 96.80 756.30 L 514.80 756.30 L 514.80 750.30 L 506.62 745.37 L 493.60 739.50 L 464.28 730.49 L 431.60 725.50 L 381.19 723.94 L 311.84 726.42 L 219.20 734.30 L 152.67 742.33 L 96.80 750.30 Z" fill="#b4b4b4" fill-rule="nonzero" group-id="8,47,86" node-id="245" stroke="none" target-height="32.359985" target-width="418" target-x="96.8" target-y="723.94"></path></g></g></g><g node-id="596"><g node-id="635"><g node-id="674"><path d="M 592.00 176.70 L 561.15 180.39 L 539.67 186.81 L 525.22 195.15 L 516.00 205.10 L 514.80 750.30 L 554.40 734.70 L 589.35 727.23 L 627.35 723.54 L 668.80 723.90 L 648.00 178.30 L 621.19 176.31 L 592.00 176.70 Z" fill="#d8d6d6" fill-rule="nonzero" group-id="9,48,87" node-id="256" stroke="none" target-height="573.99" target-width="154" target-x="514.8" target-y="176.31"></path></g></g></g><g node-id="597"><g node-id="636"><g node-id="675"><path d="M 647.60 176.30 L 592.00 176.30 L 592.00 414.70 L 620.00 448.70 L 647.60 414.70 L 647.60 176.30 Z" fill="#0f8481" fill-rule="nonzero" group-id="10,49,88" node-id="267" stroke="none" target-height="272.40002" target-width="55.599976" target-x="592" target-y="176.3"></path></g></g></g><g node-id="598"><g node-id="637"><g node-id="676"><path d="M 96.80 750.30 L 96.80 756.30 L 188.41 748.95 L 284.80 744.30 L 376.00 743.04 L 437.98 745.74 L 477.87 750.92 L 501.78 757.40 L 514.80 764.30 L 514.80 750.30 L 508.75 744.46 L 497.19 738.42 L 477.49 732.36 L 446.40 726.70 L 403.36 722.97 L 348.98 722.54 L 281.24 726.29 L 197.97 735.19 L 96.80 750.30 Z" fill="#d8d6d6" fill-rule="nonzero" group-id="11,50,89" node-id="278" stroke="none" target-height="41.76001" target-width="418" target-x="96.8" target-y="722.54"></path></g></g></g><g node-id="599"><g node-id="638"><g node-id="677"><path d="M 514.80 750.30 L 514.80 764.30 L 529.67 756.90 L 555.42 750.11 L 596.63 744.80 L 658.73 742.13 L 748.00 743.50 L 843.75 748.27 L 933.20 755.90 L 933.20 749.90 L 833.68 735.47 L 751.26 726.96 L 683.78 723.38 L 629.18 723.83 L 585.60 727.50 L 551.03 733.98 L 528.40 741.90 L 514.80 750.30 Z" fill="#d8d6d6" fill-rule="nonzero" group-id="12,51,90" node-id="289" stroke="none" target-height="40.919983" target-width="418.40002" target-x="514.8" target-y="723.38"></path></g></g></g><g node-id="600"><g node-id="639"><g node-id="678"><path d="M 462.00 249.10 L 389.20 248.30 L 383.60 847.10 L 456.00 847.90 L 462.00 249.10 M 415.60 291.10 L 412.91 286.72 L 412.00 281.50 L 412.98 276.65 L 416.00 272.30 L 420.35 269.28 L 425.20 268.30 L 430.39 269.30 L 434.80 272.30 L 437.49 276.68 L 438.40 281.90 L 437.39 287.02 L 434.40 291.10 L 430.32 294.09 L 425.20 295.10 L 420.01 294.10 L 415.60 291.10 Z" fill="#22b1b6" fill-rule="nonzero" group-id="13,52,91" node-id="300" stroke="none" target-height="599.60004" target-width="78.399994" target-x="383.6" target-y="248.3"></path></g></g></g><g node-id="601"><g node-id="640"><g node-id="679"><path d="M 490.40 249.50 L 462.00 249.10 L 456.00 847.10 L 484.80 847.50 L 490.40 249.50 Z" fill="#22b1b6" fill-rule="nonzero" group-id="14,53,92" node-id="311" stroke="none" target-height="598.4" target-width="34.399994" target-x="456" target-y="249.1"></path></g></g></g><g node-id="602"><g node-id="641"><g node-id="680"><path d="M 430.80 318.30 L 430.80 311.10 L 388.80 311.10 L 388.80 318.30 L 430.80 318.30 Z" fill="#ffffff" fill-rule="nonzero" group-id="15,54,93" node-id="322" stroke="none" target-height="7.1999817" target-width="42" target-x="388.8" target-y="311.1"></path></g></g></g><g node-id="603"><g node-id="642"><g node-id="681"><path d="M 418.80 338.70 L 418.80 331.90 L 388.80 331.90 L 388.80 338.70 L 418.80 338.70 Z" fill="#ffffff" fill-rule="nonzero" group-id="16,55,94" node-id="333" stroke="none" target-height="6.8000183" target-width="30" target-x="388.8" target-y="331.9"></path></g></g></g><g node-id="604"><g node-id="643"><g node-id="682"><path d="M 430.80 359.50 L 430.80 352.30 L 388.80 352.30 L 388.80 359.50 L 430.80 359.50 Z" fill="#ffffff" fill-rule="nonzero" group-id="17,56,95" node-id="344" stroke="none" target-height="7.200012" target-width="42" target-x="388.8" target-y="352.3"></path></g></g></g><g node-id="605"><g node-id="644"><g node-id="683"><path d="M 429.60 387.10 L 429.60 379.90 L 387.20 379.90 L 387.20 387.10 L 429.60 387.10 Z" fill="#ffffff" fill-rule="nonzero" group-id="18,57,96" node-id="355" stroke="none" target-height="7.200012" target-width="42.399994" target-x="387.2" target-y="379.9"></path></g></g></g><g node-id="606"><g node-id="645"><g node-id="684"><path d="M 417.60 407.50 L 417.60 400.30 L 387.20 400.30 L 387.20 407.50 L 417.60 407.50 Z" fill="#ffffff" fill-rule="nonzero" group-id="19,58,97" node-id="366" stroke="none" target-height="7.200012" target-width="30.399994" target-x="387.2" target-y="400.3"></path></g></g></g><g node-id="607"><g node-id="646"><g node-id="685"><path d="M 429.60 428.30 L 429.60 421.10 L 387.20 421.10 L 387.20 428.30 L 429.60 428.30 Z" fill="#ffffff" fill-rule="nonzero" group-id="20,59,98" node-id="377" stroke="none" target-height="7.1999817" target-width="42.399994" target-x="387.2" target-y="421.1"></path></g></g></g><g node-id="608"><g node-id="647"><g node-id="686"><path d="M 429.60 461.10 L 429.60 453.90 L 387.20 453.90 L 387.20 461.10 L 429.60 461.10 Z" fill="#ffffff" fill-rule="nonzero" group-id="21,60,99" node-id="388" stroke="none" target-height="7.200012" target-width="42.399994" target-x="387.2" target-y="453.9"></path></g></g></g><g node-id="609"><g node-id="648"><g node-id="687"><path d="M 417.60 481.50 L 417.60 474.30 L 387.20 474.30 L 387.20 481.50 L 417.60 481.50 Z" fill="#ffffff" fill-rule="nonzero" group-id="22,61,100" node-id="399" stroke="none" target-height="7.200012" target-width="30.399994" target-x="387.2" target-y="474.3"></path></g></g></g><g node-id="610"><g node-id="649"><g node-id="688"><path d="M 429.60 501.90 L 429.60 494.70 L 387.20 494.70 L 387.20 501.90 L 429.60 501.90 Z" fill="#ffffff" fill-rule="nonzero" group-id="23,62,101" node-id="410" stroke="none" target-height="7.1999817" target-width="42.399994" target-x="387.2" target-y="494.7"></path></g></g></g><g node-id="611"><g node-id="650"><g node-id="689"><path d="M 428.40 531.10 L 428.40 523.90 L 386.00 523.90 L 386.00 531.10 L 428.40 531.10 Z" fill="#ffffff" fill-rule="nonzero" group-id="24,63,102" node-id="421" stroke="none" target-height="7.199951" target-width="42.399994" target-x="386" target-y="523.9"></path></g></g></g><g node-id="612"><g node-id="651"><g node-id="690"><path d="M 416.40 551.90 L 416.40 544.70 L 386.00 544.70 L 386.00 551.90 L 416.40 551.90 Z" fill="#ffffff" fill-rule="nonzero" group-id="25,64,103" node-id="432" stroke="none" target-height="7.200012" target-width="30.399994" target-x="386" target-y="544.7"></path></g></g></g><g node-id="613"><g node-id="652"><g node-id="691"><path d="M 428.40 572.30 L 428.40 565.10 L 386.00 565.10 L 386.00 572.30 L 428.40 572.30 Z" fill="#ffffff" fill-rule="nonzero" group-id="26,65,104" node-id="443" stroke="none" target-height="7.200012" target-width="42.399994" target-x="386" target-y="565.1"></path></g></g></g><g node-id="614"><g node-id="653"><g node-id="692"><path d="M 427.20 603.90 L 427.20 596.70 L 384.80 596.70 L 384.80 603.90 L 427.20 603.90 Z" fill="#ffffff" fill-rule="nonzero" group-id="27,66,105" node-id="454" stroke="none" target-height="7.200012" target-width="42.400024" target-x="384.8" target-y="596.7"></path></g></g></g><g node-id="615"><g node-id="654"><g node-id="693"><path d="M 415.20 624.30 L 415.20 617.50 L 384.80 617.50 L 384.80 624.30 L 415.20 624.30 Z" fill="#ffffff" fill-rule="nonzero" group-id="28,67,106" node-id="465" stroke="none" target-height="6.799988" target-width="30.400024" target-x="384.8" target-y="617.5"></path></g></g></g><g node-id="616"><g node-id="655"><g node-id="694"><path d="M 427.20 645.10 L 427.20 637.90 L 384.80 637.90 L 384.80 645.10 L 427.20 645.10 Z" fill="#ffffff" fill-rule="nonzero" group-id="29,68,107" node-id="476" stroke="none" target-height="7.199951" target-width="42.400024" target-x="384.8" target-y="637.9"></path></g></g></g><g node-id="617"><g node-id="656"><g node-id="695"><path d="M 427.20 688.30 L 427.20 681.10 L 384.80 681.10 L 384.80 688.30 L 427.20 688.30 Z" fill="#ffffff" fill-rule="nonzero" group-id="30,69,108" node-id="487" stroke="none" target-height="7.200012" target-width="42.400024" target-x="384.8" target-y="681.1"></path></g></g></g><g node-id="618"><g node-id="657"><g node-id="696"><path d="M 415.20 709.10 L 415.20 701.90 L 384.80 701.90 L 384.80 709.10 L 415.20 709.10 Z" fill="#ffffff" fill-rule="nonzero" group-id="31,70,109" node-id="498" stroke="none" target-height="7.199951" target-width="30.400024" target-x="384.8" target-y="701.9"></path></g></g></g><g node-id="619"><g node-id="658"><g node-id="697"><path d="M 427.20 729.50 L 427.20 722.30 L 384.80 722.30 L 384.80 729.50 L 427.20 729.50 Z" fill="#ffffff" fill-rule="nonzero" group-id="32,71,110" node-id="509" stroke="none" target-height="7.200012" target-width="42.400024" target-x="384.8" target-y="722.3"></path></g></g></g><g node-id="620"><g node-id="659"><g node-id="698"><path d="M 426.00 756.70 L 426.00 749.50 L 383.60 749.50 L 383.60 756.70 L 426.00 756.70 Z" fill="#ffffff" fill-rule="nonzero" group-id="33,72,111" node-id="520" stroke="none" target-height="7.200012" target-width="42.399994" target-x="383.6" target-y="749.5"></path></g></g></g><g node-id="621"><g node-id="660"><g node-id="699"><path d="M 414.00 777.10 L 414.00 769.90 L 383.60 769.90 L 383.60 777.10 L 414.00 777.10 Z" fill="#ffffff" fill-rule="nonzero" group-id="34,73,112" node-id="531" stroke="none" target-height="7.199951" target-width="30.399994" target-x="383.6" target-y="769.9"></path></g></g></g><g node-id="622"><g node-id="661"><g node-id="700"><path d="M 426.00 797.90 L 426.00 790.70 L 383.60 790.70 L 383.60 797.90 L 426.00 797.90 Z" fill="#ffffff" fill-rule="nonzero" group-id="35,74,113" node-id="542" stroke="none" target-height="7.200012" target-width="42.399994" target-x="383.6" target-y="790.7"></path></g></g></g><g node-id="623"><g node-id="662"><g node-id="701"><path d="M 435.20 522.30 L 397.20 505.90 L 299.60 810.70 L 298.50 818.23 L 300.00 825.50 L 303.64 831.45 L 308.80 835.50 L 315.60 838.30 L 322.24 839.50 L 328.40 837.50 L 333.74 833.28 L 337.20 826.70 L 435.20 522.30 Z" fill="#63a343" fill-rule="nonzero" group-id="36,75,114" node-id="553" stroke="none" target-height="333.6" target-width="136.70001" target-x="298.5" target-y="505.9"></path></g></g></g><g node-id="624"><g node-id="663"><g node-id="702"><path d="M 302.80 799.50 L 299.60 810.70 L 298.50 818.23 L 300.00 825.50 L 303.64 831.45 L 308.80 835.50 L 315.60 838.30 L 322.24 839.50 L 328.40 837.50 L 333.74 833.28 L 337.20 826.70 L 340.80 815.90 L 302.80 799.50 Z" fill="#ffc23a" fill-rule="nonzero" group-id="37,76,115" node-id="564" stroke="none" target-height="40" target-width="42.299988" target-x="298.5" target-y="799.5"></path></g></g></g><g node-id="625"><g node-id="664"><g node-id="703"><path d="M 397.20 506.30 L 435.20 522.30 L 440.80 436.30 L 397.20 506.30 Z" fill="#cececd" fill-rule="nonzero" group-id="38,77,116" node-id="575" stroke="none" target-height="86" target-width="43.599976" target-x="397.2" target-y="436.3"></path></g></g></g><path d="M 429.60 454.30 L 439.60 458.30 L 440.80 436.30 L 429.60 454.30 Z" fill="#61313e" fill-rule="nonzero" group-id="39,78,117" node-id="586" stroke="none" target-height="22" target-width="11.199982" target-x="429.6" target-y="436.3"></path></svg>