<?xml version="1.0" standalone="no"?><!DOCTYPE svg PUBLIC "-//W3C//DTD SVG 1.1//EN" "http://www.w3.org/Graphics/SVG/1.1/DTD/svg11.dtd"><svg height="720" node-id="1" sillyvg="true" template-height="720" template-width="1040" version="1.1" viewBox="0 0 1040 720" width="1040" xmlns="http://www.w3.org/2000/svg" xmlns:xlink="http://www.w3.org/1999/xlink"><defs node-id="382"><linearGradient gradientUnits="userSpaceOnUse" id="SVGID_3_" node-id="10" spreadMethod="pad" x1="83.2875" x2="984.3206" y1="375.0104" y2="375.0104"><stop offset="0" stop-color="#110443"></stop><stop offset="1" stop-color="#1d136a"></stop></linearGradient><linearGradient gradientTransform="matrix(0.7071 -0.7071 0.7071 0.7071 -1326.7733 5856.8857)" gradientUnits="userSpaceOnUse" id="SVGID_4_" node-id="15" spreadMethod="pad" x1="4888.0747" x2="5090.357" y1="-2382.2166" y2="-2382.2166"><stop offset="0" stop-color="#6e1475"></stop><stop offset="1" stop-color="#2c0356"></stop></linearGradient><linearGradient gradientTransform="matrix(0.643 -0.643 0.4173 0.4173 565.1504 6866.772)" gradientUnits="userSpaceOnUse" id="SVGID_5_" node-id="19" spreadMethod="pad" x1="4699.366" x2="4901.6484" y1="-7513.3667" y2="-7513.3667"><stop offset="0" stop-color="#f2bd37"></stop><stop offset="0.2648" stop-color="#a2006f"></stop><stop offset="0.6147" stop-color="#920774" stop-opacity="0"></stop></linearGradient><linearGradient gradientTransform="matrix(0.2512 -0.2512 0.2404 0.2404 3764.6387 5438.8462)" gradientUnits="userSpaceOnUse" id="SVGID_6_" node-id="24" spreadMethod="pad" x1="2834.1787" x2="3036.8328" y1="-16728.053" y2="-16728.053"><stop offset="0" stop-color="#fff31a"></stop><stop offset="0.5558" stop-color="#f9ad37"></stop><stop offset="0.999" stop-color="#bb2d76" stop-opacity="0"></stop></linearGradient><linearGradient gradientUnits="userSpaceOnUse" id="SVGID_7_" node-id="30" spreadMethod="pad" x1="200.3332" x2="200.3332" y1="415.6203" y2="390.7341"><stop offset="0" stop-color="#0c4594" stop-opacity="0"></stop><stop offset="1" stop-color="#394987"></stop></linearGradient><linearGradient gradientUnits="userSpaceOnUse" id="SVGID_8_" node-id="37" spreadMethod="pad" x1="617.239" x2="617.239" y1="199.6718" y2="174.7856"><stop offset="0" stop-color="#0c4594" stop-opacity="0"></stop><stop offset="1" stop-color="#394987"></stop></linearGradient><linearGradient gradientTransform="matrix(0.7071 -0.7071 0.7071 0.7071 -1326.7733 5856.8857)" gradientUnits="userSpaceOnUse" id="SVGID_9_" node-id="45" spreadMethod="pad" x1="5376.3613" x2="5578.6436" y1="-2372.4211" y2="-2372.4211"><stop offset="0" stop-color="#6e1475"></stop><stop offset="1" stop-color="#2c0356"></stop></linearGradient><linearGradient gradientTransform="matrix(0.643 -0.643 0.4173 0.4173 565.1504 6866.772)" gradientUnits="userSpaceOnUse" id="SVGID_10_" node-id="49" spreadMethod="pad" x1="5236.3066" x2="5438.589" y1="-7496.769" y2="-7496.769"><stop offset="0" stop-color="#f2bd37"></stop><stop offset="0.2648" stop-color="#a2006f"></stop><stop offset="0.6147" stop-color="#920774" stop-opacity="0"></stop></linearGradient><linearGradient gradientTransform="matrix(0.2512 -0.2512 0.2404 0.2404 3764.6387 5438.8462)" gradientUnits="userSpaceOnUse" id="SVGID_11_" node-id="54" spreadMethod="pad" x1="4208.608" x2="4411.2617" y1="-16699.238" y2="-16699.238"><stop offset="0" stop-color="#fff31a"></stop><stop offset="0.5558" stop-color="#f9ad37"></stop><stop offset="0.999" stop-color="#bb2d76" stop-opacity="0"></stop></linearGradient><linearGradient gradientTransform="matrix(0.7071 -0.7071 0.7071 0.7071 -1326.7733 5856.8857)" gradientUnits="userSpaceOnUse" id="SVGID_12_" node-id="60" spreadMethod="pad" x1="4879.2188" x2="4993.5767" y1="-2855.52" y2="-2855.52"><stop offset="0" stop-color="#6e1475"></stop><stop offset="1" stop-color="#2c0356"></stop></linearGradient><linearGradient gradientTransform="matrix(0.643 -0.643 0.4173 0.4173 565.1504 6866.772)" gradientUnits="userSpaceOnUse" id="SVGID_13_" node-id="64" spreadMethod="pad" x1="4685.2476" x2="4799.6055" y1="-8315.355" y2="-8315.355"><stop offset="0" stop-color="#f2bd37"></stop><stop offset="0.2648" stop-color="#a2006f"></stop><stop offset="0.6147" stop-color="#920774" stop-opacity="0"></stop></linearGradient><linearGradient gradientTransform="matrix(0.2512 -0.2512 0.2404 0.2404 3764.6387 5438.8462)" gradientUnits="userSpaceOnUse" id="SVGID_14_" node-id="69" spreadMethod="pad" x1="2791.4114" x2="2905.9797" y1="-18120.305" y2="-18120.305"><stop offset="0" stop-color="#fff31a"></stop><stop offset="0.5558" stop-color="#f9ad37"></stop><stop offset="0.999" stop-color="#bb2d76" stop-opacity="0"></stop></linearGradient><linearGradient gradientTransform="matrix(0.7071 -0.7071 0.7071 0.7071 -1326.7733 5856.8857)" gradientUnits="userSpaceOnUse" id="SVGID_15_" node-id="75" spreadMethod="pad" x1="5435.5356" x2="5549.8936" y1="-2660.1516" y2="-2660.1516"><stop offset="0" stop-color="#6e1475"></stop><stop offset="1" stop-color="#2c0356"></stop></linearGradient><linearGradient gradientTransform="matrix(0.643 -0.643 0.4173 0.4173 565.1504 6866.772)" gradientUnits="userSpaceOnUse" id="SVGID_16_" node-id="79" spreadMethod="pad" x1="5296.9966" x2="5411.3545" y1="-7984.314" y2="-7984.314"><stop offset="0" stop-color="#f2bd37"></stop><stop offset="0.2648" stop-color="#a2006f"></stop><stop offset="0.6147" stop-color="#920774" stop-opacity="0"></stop></linearGradient><linearGradient gradientTransform="matrix(0.2512 -0.2512 0.2404 0.2404 3764.6387 5438.8462)" gradientUnits="userSpaceOnUse" id="SVGID_17_" node-id="84" spreadMethod="pad" x1="4357.3315" x2="4471.9" y1="-17545.615" y2="-17545.615"><stop offset="0" stop-color="#fff31a"></stop><stop offset="0.5558" stop-color="#f9ad37"></stop><stop offset="0.999" stop-color="#bb2d76" stop-opacity="0"></stop></linearGradient><linearGradient gradientTransform="matrix(0.7071 -0.7071 0.7071 0.7071 -1326.7733 5856.8857)" gradientUnits="userSpaceOnUse" id="SVGID_18_" node-id="90" spreadMethod="pad" x1="5066.402" x2="5180.76" y1="-2617.8845" y2="-2617.8845"><stop offset="0" stop-color="#6e1475"></stop><stop offset="1" stop-color="#2c0356"></stop></linearGradient><linearGradient gradientTransform="matrix(0.643 -0.643 0.4173 0.4173 565.1504 6866.772)" gradientUnits="userSpaceOnUse" id="SVGID_19_" node-id="94" spreadMethod="pad" x1="4891.082" x2="5005.44" y1="-7912.6943" y2="-7912.6943"><stop offset="0" stop-color="#f2bd37"></stop><stop offset="0.2648" stop-color="#a2006f"></stop><stop offset="0.6147" stop-color="#920774" stop-opacity="0"></stop></linearGradient><linearGradient gradientTransform="matrix(0.2512 -0.2512 0.2404 0.2404 3764.6387 5438.8462)" gradientUnits="userSpaceOnUse" id="SVGID_20_" node-id="99" spreadMethod="pad" x1="3318.2947" x2="3432.863" y1="-17421.285" y2="-17421.285"><stop offset="0" stop-color="#fff31a"></stop><stop offset="0.5558" stop-color="#f9ad37"></stop><stop offset="0.999" stop-color="#bb2d76" stop-opacity="0"></stop></linearGradient><radialGradient cx="718.7495" cy="575.8974" fx="718.7495" fy="575.8974" gradientUnits="userSpaceOnUse" id="SVGID_21_" node-id="104" r="13.514" spreadMethod="pad"><stop offset="0.1955" stop-color="#ffffff"></stop><stop offset="0.8827" stop-color="#ffffff" stop-opacity="0"></stop></radialGradient><radialGradient cx="847.977" cy="364.1237" fx="847.977" fy="364.1237" gradientUnits="userSpaceOnUse" id="SVGID_22_" node-id="108" r="13.514" spreadMethod="pad"><stop offset="0.1955" stop-color="#ffffff"></stop><stop offset="0.8827" stop-color="#ffffff" stop-opacity="0"></stop></radialGradient><radialGradient cx="483.0658" cy="159.3711" fx="483.0658" fy="159.3711" gradientUnits="userSpaceOnUse" id="SVGID_23_" node-id="112" r="13.514" spreadMethod="pad"><stop offset="0.1955" stop-color="#ffffff"></stop><stop offset="0.8827" stop-color="#ffffff" stop-opacity="0"></stop></radialGradient><radialGradient cx="147.7574" cy="444.203" fx="147.7574" fy="444.203" gradientUnits="userSpaceOnUse" id="SVGID_24_" node-id="116" r="13.514" spreadMethod="pad"><stop offset="0.1955" stop-color="#ffffff"></stop><stop offset="0.8827" stop-color="#ffffff" stop-opacity="0"></stop></radialGradient><radialGradient cx="400.5196" cy="645.9194" fx="400.5196" fy="645.9194" gradientUnits="userSpaceOnUse" id="SVGID_25_" node-id="120" r="13.514" spreadMethod="pad"><stop offset="0.1955" stop-color="#ffffff"></stop><stop offset="0.8827" stop-color="#ffffff" stop-opacity="0"></stop></radialGradient><linearGradient gradientTransform="matrix(-0.7071 -0.7071 -0.7071 0.7071 -4275.4238 -2228.2305)" gradientUnits="userSpaceOnUse" id="SVGID_26_" node-id="124" spreadMethod="pad" x1="-5496.52" x2="-5496.52" y1="-1398.3004" y2="-1319.7393"><stop offset="0" stop-color="#1a2d72"></stop><stop offset="1" stop-color="#216d7a"></stop></linearGradient><linearGradient gradientTransform="matrix(0.1925 -0.9813 -0.9813 -0.1925 -2750.1614 -384.5609)" gradientUnits="userSpaceOnUse" id="SVGID_27_" node-id="128" spreadMethod="pad" x1="171.8929" x2="171.8929" y1="-3157.8545" y2="-3079.2932"><stop offset="0" stop-color="#1a2d72"></stop><stop offset="1" stop-color="#216d7a"></stop></linearGradient><radialGradient cx="-12520.042" cy="2290.805" fx="-12520.042" fy="2290.805" gradientTransform="matrix(-0.9627 0.2704 0.2704 0.9627 -12529.7432 1726.1483)" gradientUnits="userSpaceOnUse" id="SVGID_28_" node-id="133" r="116.1217" spreadMethod="pad"><stop offset="0" stop-color="#08acd2"></stop><stop offset="1" stop-color="#08acd2" stop-opacity="0"></stop></radialGradient><radialGradient cx="902.5334" cy="570.1097" fx="902.5334" fy="570.1097" gradientUnits="userSpaceOnUse" id="SVGID_31_" node-id="160" r="81.7872" spreadMethod="pad"><stop offset="0" stop-color="#70eb8f"></stop><stop offset="1" stop-color="#70eb8f" stop-opacity="0"></stop></radialGradient><linearGradient gradientUnits="userSpaceOnUse" id="SVGID_32_" node-id="168" spreadMethod="pad" x1="902.9362" x2="902.1159" y1="626.7518" y2="511.4066"><stop offset="0" stop-color="#70eb8f"></stop><stop offset="1" stop-color="#70eb8f"></stop></linearGradient><radialGradient cx="490.5712" cy="501.8304" fx="490.5712" fy="501.8304" gradientUnits="userSpaceOnUse" id="SVGID_33_" node-id="185" r="27.4428" spreadMethod="pad"><stop offset="0" stop-color="#942236"></stop><stop offset="1" stop-color="#972030" stop-opacity="0"></stop></radialGradient><radialGradient cx="509.5222" cy="464.9685" fx="509.5222" fy="464.9685" gradientUnits="userSpaceOnUse" id="SVGID_34_" node-id="190" r="4.5221" spreadMethod="pad"><stop offset="0" stop-color="#942236"></stop><stop offset="1" stop-color="#972030" stop-opacity="0"></stop></radialGradient><linearGradient gradientUnits="userSpaceOnUse" id="SVGID_35_" node-id="199" spreadMethod="pad" x1="538.3828" x2="560.6219" y1="335.3844" y2="335.3844"><stop offset="0.2822" stop-color="#110443"></stop><stop offset="1" stop-color="#1d136a"></stop></linearGradient><linearGradient gradientUnits="userSpaceOnUse" id="SVGID_36_" node-id="212" spreadMethod="pad" x1="466.9742" x2="495.6849" y1="375.1192" y2="375.1192"><stop offset="0" stop-color="#110443"></stop><stop offset="1" stop-color="#1d136a"></stop></linearGradient><radialGradient cx="441.4328" cy="414.9754" fx="441.4328" fy="414.9754" gradientUnits="userSpaceOnUse" id="SVGID_37_" node-id="239" r="6.0057" spreadMethod="pad"><stop offset="0" stop-color="#942236"></stop><stop offset="1" stop-color="#972030" stop-opacity="0"></stop></radialGradient><linearGradient gradientUnits="userSpaceOnUse" id="SVGID_40_" node-id="249" spreadMethod="pad" x1="434.0415" x2="449.8098" y1="414.6468" y2="414.6468"><stop offset="0" stop-color="#110443"></stop><stop offset="1" stop-color="#1d136a"></stop></linearGradient><radialGradient cx="443.2401" cy="412.1822" fx="443.2401" fy="412.1822" gradientUnits="userSpaceOnUse" id="SVGID_41_" node-id="254" r="6.0057" spreadMethod="pad"><stop offset="0" stop-color="#942236"></stop><stop offset="1" stop-color="#972030" stop-opacity="0"></stop></radialGradient><linearGradient gradientUnits="userSpaceOnUse" id="SVGID_44_" node-id="264" spreadMethod="pad" x1="435.8488" x2="451.6172" y1="411.8536" y2="411.8536"><stop offset="0" stop-color="#110443"></stop><stop offset="1" stop-color="#1d136a"></stop></linearGradient><radialGradient cx="444.8831" cy="409.3891" fx="444.8831" fy="409.3891" gradientUnits="userSpaceOnUse" id="SVGID_45_" node-id="269" r="6.0057" spreadMethod="pad"><stop offset="0" stop-color="#942236"></stop><stop offset="1" stop-color="#972030" stop-opacity="0"></stop></radialGradient><linearGradient gradientUnits="userSpaceOnUse" id="SVGID_48_" node-id="279" spreadMethod="pad" x1="437.4919" x2="453.2602" y1="409.0605" y2="409.0605"><stop offset="0" stop-color="#110443"></stop><stop offset="1" stop-color="#1d136a"></stop></linearGradient><radialGradient cx="788.4868" cy="170.0927" fx="788.4868" fy="170.0927" gradientUnits="userSpaceOnUse" id="SVGID_49_" node-id="284" r="156.5531" spreadMethod="pad"><stop offset="0" stop-color="#ffcf00"></stop><stop offset="1" stop-color="#ffcf00" stop-opacity="0"></stop></radialGradient><radialGradient cx="788.4868" cy="170.0927" fx="788.4868" fy="170.0927" gradientUnits="userSpaceOnUse" id="SVGID_50_" node-id="292" r="104.0723" spreadMethod="pad"><stop offset="0" stop-color="#ffd200"></stop><stop offset="0.7186" stop-color="#fdc305"></stop><stop offset="1" stop-color="#f69813"></stop></radialGradient><radialGradient cx="319.3966" cy="143.1465" fx="319.3966" fy="143.1465" gradientUnits="userSpaceOnUse" id="SVGID_51_" node-id="303" r="8.3495" spreadMethod="pad"><stop offset="0" stop-color="#d6d3fe"></stop><stop offset="1" stop-color="#d6d3fe" stop-opacity="0"></stop></radialGradient><radialGradient cx="319.3966" cy="143.1465" fx="319.3966" fy="143.1465" gradientUnits="userSpaceOnUse" id="SVGID_52_" node-id="309" r="8.3495" spreadMethod="pad"><stop offset="0" stop-color="#d6d3fe"></stop><stop offset="1" stop-color="#d6d3fe" stop-opacity="0"></stop></radialGradient><radialGradient cx="778.0499" cy="581.6851" fx="778.0499" fy="581.6851" gradientUnits="userSpaceOnUse" id="SVGID_53_" node-id="315" r="4.1748" spreadMethod="pad"><stop offset="0" stop-color="#d6d3fe"></stop><stop offset="1" stop-color="#d6d3fe" stop-opacity="0"></stop></radialGradient><radialGradient cx="749.0164" cy="379.2097" fx="749.0164" fy="379.2097" gradientUnits="userSpaceOnUse" id="SVGID_54_" node-id="321" r="4.1748" spreadMethod="pad"><stop offset="0" stop-color="#ffffff"></stop><stop offset="1" stop-color="#ffffff" stop-opacity="0"></stop></radialGradient><radialGradient cx="636.1084" cy="212.0299" fx="636.1084" fy="212.0299" gradientUnits="userSpaceOnUse" id="SVGID_55_" node-id="325" r="4.1748" spreadMethod="pad"><stop offset="0" stop-color="#ffffff"></stop><stop offset="1" stop-color="#ffffff" stop-opacity="0"></stop></radialGradient><radialGradient cx="541.6072" cy="144.8544" fx="541.6072" fy="144.8544" gradientUnits="userSpaceOnUse" id="SVGID_56_" node-id="329" r="4.1748" spreadMethod="pad"><stop offset="0" stop-color="#ffffff"></stop><stop offset="1" stop-color="#ffffff" stop-opacity="0"></stop></radialGradient><radialGradient cx="431.9251" cy="114.6823" fx="431.9251" fy="114.6823" gradientUnits="userSpaceOnUse" id="SVGID_57_" node-id="333" r="4.1748" spreadMethod="pad"><stop offset="0" stop-color="#ffffff"></stop><stop offset="1" stop-color="#ffffff" stop-opacity="0"></stop></radialGradient><radialGradient cx="309.9085" cy="194.7616" fx="309.9085" fy="194.7616" gradientUnits="userSpaceOnUse" id="SVGID_58_" node-id="337" r="4.1748" spreadMethod="pad"><stop offset="0" stop-color="#ffffff"></stop><stop offset="1" stop-color="#ffffff" stop-opacity="0"></stop></radialGradient><radialGradient cx="423.5756" cy="366.8752" fx="423.5756" fy="366.8752" gradientUnits="userSpaceOnUse" id="SVGID_59_" node-id="341" r="4.1748" spreadMethod="pad"><stop offset="0" stop-color="#ffffff"></stop><stop offset="1" stop-color="#ffffff" stop-opacity="0"></stop></radialGradient><radialGradient cx="184.0967" cy="456.0631" fx="184.0967" fy="456.0631" gradientUnits="userSpaceOnUse" id="SVGID_60_" node-id="345" r="4.1748" spreadMethod="pad"><stop offset="0" stop-color="#ffffff"></stop><stop offset="1" stop-color="#ffffff" stop-opacity="0"></stop></radialGradient><radialGradient cx="419.4009" cy="677.1351" fx="419.4009" fy="677.1351" gradientUnits="userSpaceOnUse" id="SVGID_61_" node-id="349" r="4.1748" spreadMethod="pad"><stop offset="0" stop-color="#ffffff"></stop><stop offset="1" stop-color="#ffffff" stop-opacity="0"></stop></radialGradient><radialGradient cx="673.6812" cy="554.5493" fx="673.6812" fy="554.5493" gradientUnits="userSpaceOnUse" id="SVGID_62_" node-id="353" r="4.1748" spreadMethod="pad"><stop offset="0" stop-color="#ffffff"></stop><stop offset="1" stop-color="#ffffff" stop-opacity="0"></stop></radialGradient><radialGradient cx="809.9298" cy="546.1997" fx="809.9298" fy="546.1997" gradientUnits="userSpaceOnUse" id="SVGID_63_" node-id="357" r="4.1748" spreadMethod="pad"><stop offset="0" stop-color="#ffffff"></stop><stop offset="1" stop-color="#ffffff" stop-opacity="0"></stop></radialGradient><radialGradient cx="611.6292" cy="444.1081" fx="611.6292" fy="444.1081" gradientUnits="userSpaceOnUse" id="SVGID_64_" node-id="361" r="4.1748" spreadMethod="pad"><stop offset="0" stop-color="#ffffff"></stop><stop offset="1" stop-color="#ffffff" stop-opacity="0"></stop></radialGradient><radialGradient cx="597.5868" cy="329.4922" fx="597.5868" fy="329.4922" gradientUnits="userSpaceOnUse" id="SVGID_65_" node-id="365" r="4.1748" spreadMethod="pad"><stop offset="0" stop-color="#ffffff"></stop><stop offset="1" stop-color="#ffffff" stop-opacity="0"></stop></radialGradient><linearGradient gradientUnits="userSpaceOnUse" id="SVGID_66_" node-id="373" spreadMethod="pad" x1="796.2897" x2="800.7" y1="511.673" y2="518.0519"><stop offset="0" stop-color="#c695c9"></stop><stop offset="1" stop-color="#945b89"></stop></linearGradient><clipPath id="SVGID_2_" node-id="8"><path d="M 83.29 417.50 C 83.29 261.11 252.06 47.32 394.27 47.32 C 599.24 47.32 984.32 123.98 984.32 439.41 C 984.32 705.79 545.26 702.70 487.22 702.70 C 429.18 702.70 83.29 705.98 83.29 417.50 Z" fill="#000000" fill-rule="nonzero" node-id="743" stroke="none" target-height="658.66" target-width="901.03" target-x="83.29" target-y="47.32"></path></clipPath><clipPath id="SVGID_30_" node-id="141"><path d="M 230.53 546.25 C 230.53 594.40 191.49 633.43 143.34 633.43 C 95.19 633.43 56.16 594.40 56.16 546.25 C 56.16 498.09 95.19 459.06 143.34 459.06 C 191.49 459.06 230.53 498.09 230.53 546.25 Z" fill="#000000" fill-rule="nonzero" node-id="747" stroke="none" target-height="174.37" target-width="174.37" target-x="56.16" target-y="459.06"></path></clipPath><clipPath id="SVGID_39_" node-id="247"><path d="M 447.94 418.09 L 434.30 413.91 C 433.74 413.73 433.42 413.14 433.60 412.57 L 433.60 412.57 C 433.77 412.01 434.37 411.69 434.93 411.86 L 448.56 416.05 C 449.13 416.22 449.44 416.81 449.27 417.38 L 449.27 417.38 C 449.10 417.94 448.50 418.26 447.94 418.09 Z" fill="#000000" fill-rule="nonzero" node-id="751" stroke="none" target-height="6.5700073" target-width="16.019989" target-x="433.42" target-y="411.69"></path></clipPath><clipPath id="SVGID_43_" node-id="262"><path d="M 449.74 415.29 L 436.11 411.11 C 435.55 410.94 435.23 410.34 435.40 409.78 L 435.40 409.78 C 435.58 409.21 436.17 408.90 436.74 409.07 L 450.37 413.25 C 450.93 413.43 451.25 414.02 451.08 414.59 L 451.08 414.59 C 450.90 415.15 450.31 415.47 449.74 415.29 Z" fill="#000000" fill-rule="nonzero" node-id="755" stroke="none" target-height="6.5700073" target-width="16.019989" target-x="435.23" target-y="408.9"></path></clipPath><clipPath id="SVGID_47_" node-id="277"><path d="M 451.39 412.50 L 437.75 408.32 C 437.19 408.15 436.87 407.55 437.05 406.99 L 437.05 406.99 C 437.22 406.42 437.82 406.11 438.38 406.28 L 452.01 410.46 C 452.58 410.63 452.89 411.23 452.72 411.79 L 452.72 411.79 C 452.55 412.36 451.95 412.67 451.39 412.50 Z" fill="#000000" fill-rule="nonzero" node-id="759" stroke="none" target-height="6.560028" target-width="16.02002" target-x="436.87" target-y="406.11"></path></clipPath></defs><path d="M 29.25 438.42 C 29.25 438.42 38.74 86.79 371.39 31.00 C 704.04 -24.79 708.71 33.68 806.13 56.23 C 960.22 91.91 1009.75 190.02 1009.75 438.41 C 1009.75 686.81 862.11 713.00 490.18 713.00 C 118.25 713.00 29.25 598.76 29.25 438.42 Z" fill="#f0f0ff" fill-rule="nonzero" node-id="765" stroke="none" target-height="737.79" target-width="980.5" target-x="29.25" target-y="-24.79"></path><path d="M 224.14 108.04 C 366.27 -19.67 673.30 37.64 714.86 51.30 C 780.90 72.37 990.04 235.12 999.88 376.55 C 1009.72 517.98 1000.60 705.92 632.20 705.92 C 381.29 705.92 237.51 712.59 153.35 621.73 C 12.04 469.14 48.23 256.81 224.14 108.04 Z" fill="#c7d0ff" fill-rule="nonzero" node-id="767" stroke="none" target-height="732.26" target-width="997.68" target-x="12.04" target-y="-19.67"></path><g node-id="1263"><g node-id="1264"><g clip-path="url(#SVGID_2_)" group-id="1,2" node-id="771"><path d="M 83.29 417.50 C 83.29 261.11 252.06 47.32 394.27 47.32 C 599.24 47.32 984.32 123.98 984.32 439.41 C 984.32 705.79 545.26 702.70 487.22 702.70 C 429.18 702.70 83.29 705.98 83.29 417.50 Z" fill="url(#SVGID_3_)" fill-rule="nonzero" group-id="1,2" node-id="773" stroke="none" target-height="658.66" target-width="901.03" target-x="83.29" target-y="47.32"></path></g></g><g node-id="1265"><g clip-path="url(#SVGID_2_)" group-id="1,3" node-id="776"><path d="M 588.17 590.15 L 462.31 716.01 C 457.57 720.76 449.88 720.76 445.14 716.01 L 445.14 716.01 C 440.39 711.27 440.39 703.58 445.14 698.84 L 571.00 572.98 C 575.74 568.24 583.43 568.24 588.17 572.98 L 588.17 572.98 C 592.91 577.72 592.91 585.41 588.17 590.15 Z" fill="url(#SVGID_4_)" fill-opacity="0.25" fill-rule="nonzero" group-id="1,3,27" node-id="780" stroke="none" target-height="152.52002" target-width="152.51996" target-x="440.39" target-y="568.24"></path><path d="M 581.69 589.59 L 461.75 709.53 C 458.95 712.33 454.42 712.33 451.62 709.53 L 451.62 709.53 C 448.82 706.73 448.82 702.20 451.62 699.40 L 571.55 579.46 C 574.35 576.66 578.89 576.66 581.69 579.46 L 581.69 579.46 C 584.49 582.26 584.49 586.79 581.69 589.59 Z" fill="url(#SVGID_5_)" fill-opacity="0.5" fill-rule="nonzero" group-id="1,3" node-id="783" stroke="none" target-height="135.67004" target-width="135.66998" target-x="448.82" target-y="576.66"></path><path d="M 461.28 705.70 C 459.67 707.32 457.06 707.32 455.45 705.70 L 455.45 705.70 C 453.83 704.09 453.83 701.48 455.45 699.87 L 505.86 654.30 L 461.28 705.70 Z" fill="url(#SVGID_6_)" fill-opacity="0.5" fill-rule="nonzero" group-id="1,3" node-id="785" stroke="none" target-height="53.02002" target-width="52.03" target-x="453.83" target-y="654.3"></path></g></g><g node-id="1266"><g clip-path="url(#SVGID_2_)" group-id="1,4" node-id="788"><path d="M 216.04 416.97 L 184.63 416.97 L 193.34 388.79 L 207.33 388.79 Z" fill="url(#SVGID_7_)" fill-opacity="0.5" fill-rule="nonzero" group-id="1,4" node-id="790" stroke="none" target-height="28.179993" target-width="31.409988" target-x="184.63" target-y="388.79"></path><path d="M 227.68 392.06 L 172.36 392.06 C 170.57 392.06 169.11 390.59 169.11 388.80 L 169.11 388.80 C 169.11 387.01 170.57 385.54 172.36 385.54 L 227.68 385.54 C 229.47 385.54 230.94 387.01 230.94 388.80 L 230.94 388.80 C 230.94 390.59 229.47 392.06 227.68 392.06 Z" fill="#090933" fill-opacity="0.5" fill-rule="nonzero" group-id="1,4" node-id="792" stroke="none" target-height="6.519989" target-width="61.83" target-x="169.11" target-y="385.54"></path><path d="M 215.10 385.97 C 215.10 392.00 184.94 392.00 184.94 385.97 C 184.94 379.93 191.69 375.04 200.02 375.04 C 208.35 375.04 215.10 379.93 215.10 385.97 Z" fill="#090933" fill-opacity="0.5" fill-rule="nonzero" group-id="1,4" node-id="794" stroke="none" target-height="16.959991" target-width="30.160004" target-x="184.94" target-y="375.04"></path></g></g><g node-id="1267"><g clip-path="url(#SVGID_2_)" group-id="1,5" node-id="797"><path d="M 632.94 201.02 L 601.54 201.02 L 610.24 172.84 L 624.24 172.84 Z" fill="url(#SVGID_8_)" fill-opacity="0.5" fill-rule="nonzero" group-id="1,5" node-id="799" stroke="none" target-height="28.180008" target-width="31.400024" target-x="601.54" target-y="172.84"></path><path d="M 644.59 176.11 L 589.27 176.11 C 587.48 176.11 586.01 174.64 586.01 172.85 L 586.01 172.85 C 586.01 171.06 587.48 169.59 589.27 169.59 L 644.59 169.59 C 646.38 169.59 647.84 171.06 647.84 172.85 L 647.84 172.85 C 647.85 174.64 646.38 176.11 644.59 176.11 Z" fill="#090933" fill-opacity="0.5" fill-rule="nonzero" group-id="1,5" node-id="801" stroke="none" target-height="6.5200043" target-width="61.839966" target-x="586.01" target-y="169.59"></path><path d="M 632.01 170.02 C 632.01 176.06 601.85 176.06 601.85 170.02 C 601.85 163.98 608.60 159.09 616.93 159.09 C 625.26 159.09 632.01 163.98 632.01 170.02 Z" fill="#090933" fill-opacity="0.5" fill-rule="nonzero" group-id="1,5" node-id="803" stroke="none" target-height="16.970001" target-width="30.160034" target-x="601.85" target-y="159.09"></path></g></g><g node-id="1268"><g clip-path="url(#SVGID_2_)" group-id="1,6" node-id="806"><path d="M 351.28 13.54 C 351.28 13.54 184.03 221.18 228.88 272.38 C 271.77 321.33 337.61 320.19 378.60 425.51 C 419.59 530.83 465.16 517.43 569.69 535.76 C 674.23 554.10 671.60 605.98 740.48 602.37 C 809.36 598.76 867.43 533.30 854.34 453.22 C 841.24 373.14 948.16 256.96 980.28 268.75 C 1012.41 280.53 1009.75 635.39 1009.75 635.39 L 555.46 752.09 C 555.46 752.09 535.35 680.93 478.23 670.11 C 421.11 659.30 294.73 592.31 267.97 505.02 C 241.21 417.73 233.81 361.75 166.26 316.59 C 110.40 279.25 227.74 97.22 249.00 59.46 C 270.25 21.70 351.28 13.54 351.28 13.54 Z" fill="#35257e" fill-opacity="0.5" fill-rule="nonzero" group-id="1,6" node-id="808" stroke="none" target-height="738.55005" target-width="902.00995" target-x="110.4" target-y="13.54"></path></g></g><g node-id="1269"><g clip-path="url(#SVGID_2_)" group-id="1,7" node-id="811"><path d="M 940.37 251.81 L 814.51 377.67 C 809.76 382.41 802.08 382.41 797.33 377.67 L 797.33 377.67 C 792.59 372.93 792.59 365.24 797.33 360.50 L 923.20 234.63 C 927.94 229.89 935.63 229.89 940.37 234.63 L 940.37 234.63 C 945.11 239.38 945.11 247.06 940.37 251.81 Z" fill="url(#SVGID_9_)" fill-opacity="0.5" fill-rule="nonzero" group-id="1,7,28" node-id="815" stroke="none" target-height="152.52" target-width="152.51996" target-x="792.59" target-y="229.89"></path><path d="M 933.89 251.25 L 813.95 371.19 C 811.15 373.99 806.61 373.99 803.81 371.19 L 803.81 371.19 C 801.01 368.39 801.01 363.85 803.81 361.05 L 923.75 241.12 C 926.55 238.32 931.09 238.32 933.89 241.12 L 933.89 241.12 C 936.69 243.91 936.69 248.45 933.89 251.25 Z" fill="url(#SVGID_10_)" fill-rule="nonzero" group-id="1,7" node-id="818" stroke="none" target-height="135.66998" target-width="135.68" target-x="801.01" target-y="238.32"></path><path d="M 813.48 367.36 C 811.87 368.97 809.26 368.97 807.64 367.36 L 807.64 367.36 C 806.03 365.75 806.03 363.13 807.64 361.52 L 858.06 315.96 L 813.48 367.36 Z" fill="url(#SVGID_11_)" fill-rule="nonzero" group-id="1,7" node-id="820" stroke="none" target-height="53.01001" target-width="52.02997" target-x="806.03" target-y="315.96"></path></g></g><g node-id="1270"><g clip-path="url(#SVGID_2_)" group-id="1,8" node-id="823"><path d="M 185.06 316.44 L 113.91 387.60 C 111.22 390.28 106.88 390.28 104.20 387.60 L 104.20 387.60 C 101.52 384.92 101.52 380.57 104.20 377.89 L 175.35 306.74 C 178.03 304.06 182.38 304.06 185.06 306.74 L 185.06 306.74 C 187.74 309.42 187.74 313.76 185.06 316.44 Z" fill="url(#SVGID_12_)" fill-opacity="0.5" fill-rule="nonzero" group-id="1,8,29" node-id="827" stroke="none" target-height="86.22" target-width="86.22001" target-x="101.52" target-y="304.06"></path><path d="M 181.40 316.13 L 113.59 383.94 C 112.01 385.52 109.44 385.52 107.86 383.94 L 107.86 383.94 C 106.28 382.35 106.28 379.79 107.86 378.21 L 175.67 310.40 C 177.25 308.82 179.81 308.82 181.40 310.40 L 181.40 310.40 C 182.98 311.98 182.98 314.55 181.40 316.13 Z" fill="url(#SVGID_13_)" fill-rule="nonzero" group-id="1,8" node-id="830" stroke="none" target-height="76.69998" target-width="76.7" target-x="106.28" target-y="308.82"></path><path d="M 113.33 381.77 C 112.42 382.68 110.94 382.68 110.03 381.77 L 110.03 381.77 C 109.11 380.86 109.11 379.38 110.03 378.47 L 138.53 352.71 L 113.33 381.77 Z" fill="url(#SVGID_14_)" fill-rule="nonzero" group-id="1,8" node-id="832" stroke="none" target-height="29.970001" target-width="29.419998" target-x="109.11" target-y="352.71"></path></g></g><g node-id="1271"><g clip-path="url(#SVGID_2_)" group-id="1,9" node-id="835"><path d="M 716.58 61.22 L 645.43 132.37 C 642.75 135.05 638.40 135.05 635.72 132.37 L 635.72 132.37 C 633.04 129.69 633.04 125.34 635.72 122.66 L 706.87 51.51 C 709.55 48.83 713.90 48.83 716.58 51.51 L 716.58 51.51 C 719.26 54.19 719.26 58.53 716.58 61.22 Z" fill="url(#SVGID_15_)" fill-opacity="0.5" fill-rule="nonzero" group-id="1,9,30" node-id="839" stroke="none" target-height="86.22" target-width="86.22003" target-x="633.04" target-y="48.83"></path><path d="M 712.92 60.90 L 645.11 128.71 C 643.53 130.29 640.97 130.29 639.38 128.71 L 639.38 128.71 C 637.80 127.12 637.80 124.56 639.38 122.98 L 707.19 55.17 C 708.77 53.59 711.34 53.59 712.92 55.17 L 712.92 55.17 C 714.50 56.75 714.50 59.32 712.92 60.90 Z" fill="url(#SVGID_16_)" fill-rule="nonzero" group-id="1,9" node-id="842" stroke="none" target-height="76.7" target-width="76.70001" target-x="637.8" target-y="53.59"></path><path d="M 644.85 126.54 C 643.94 127.45 642.46 127.45 641.55 126.54 L 641.55 126.54 C 640.64 125.63 640.64 124.15 641.55 123.24 L 670.05 97.48 L 644.85 126.54 Z" fill="url(#SVGID_17_)" fill-rule="nonzero" group-id="1,9" node-id="844" stroke="none" target-height="29.969994" target-width="29.409973" target-x="640.64" target-y="97.48"></path></g></g><g node-id="1272"><g clip-path="url(#SVGID_2_)" group-id="1,10" node-id="847"><path d="M 485.45 352.12 L 414.30 423.27 C 411.62 425.96 407.27 425.96 404.59 423.27 L 404.59 423.27 C 401.91 420.59 401.91 416.25 404.59 413.57 L 475.74 342.41 C 478.43 339.73 482.77 339.73 485.45 342.41 L 485.45 342.41 C 488.13 345.09 488.13 349.44 485.45 352.12 Z" fill="url(#SVGID_18_)" fill-opacity="0.5" fill-rule="nonzero" group-id="1,10,31" node-id="851" stroke="none" target-height="86.22998" target-width="86.22" target-x="401.91" target-y="339.73"></path><path d="M 481.79 351.81 L 413.98 419.61 C 412.40 421.19 409.84 421.19 408.25 419.61 L 408.25 419.61 C 406.67 418.03 406.67 415.46 408.25 413.88 L 476.06 346.07 C 477.64 344.49 480.21 344.49 481.79 346.07 L 481.79 346.07 C 483.37 347.66 483.37 350.22 481.79 351.81 Z" fill="url(#SVGID_19_)" fill-rule="nonzero" group-id="1,10" node-id="854" stroke="none" target-height="76.70001" target-width="76.69998" target-x="406.67" target-y="344.49"></path><path d="M 413.72 417.45 C 412.81 418.36 411.33 418.36 410.42 417.45 L 410.42 417.45 C 409.51 416.54 409.51 415.06 410.42 414.14 L 438.92 388.39 L 413.72 417.45 Z" fill="url(#SVGID_20_)" fill-rule="nonzero" group-id="1,10" node-id="856" stroke="none" target-height="29.96997" target-width="29.410004" target-x="409.51" target-y="388.39"></path></g></g><g node-id="1273"><g clip-path="url(#SVGID_2_)" group-id="1,11" node-id="859"><path d="M 731.92 576.45 L 730.78 575.31 C 730.78 575.31 723.73 574.57 722.24 573.07 C 720.74 571.58 719.71 563.00 719.71 563.00 L 718.75 562.04 L 717.77 563.03 C 717.77 563.03 717.29 571.32 715.38 572.96 C 713.47 574.60 706.82 575.21 706.82 575.21 L 705.58 576.45 L 706.96 577.82 C 706.96 577.82 713.24 577.66 715.41 579.97 C 717.59 582.28 717.95 588.95 717.95 588.95 L 718.75 589.75 L 719.64 588.87 C 719.64 588.87 719.71 582.48 722.01 580.05 C 724.30 577.61 730.84 577.52 730.84 577.52 L 731.92 576.45 Z" fill="url(#SVGID_21_)" fill-rule="nonzero" group-id="1,11" node-id="861" stroke="none" target-height="27.710022" target-width="26.339966" target-x="705.58" target-y="562.04"></path></g></g><g node-id="1274"><g clip-path="url(#SVGID_2_)" group-id="1,12" node-id="864"><path d="M 861.14 364.67 L 860.01 363.54 C 860.01 363.54 852.96 362.80 851.46 361.30 C 849.97 359.80 848.94 351.23 848.94 351.23 L 847.98 350.27 L 847.00 351.25 C 847.00 351.25 846.52 359.55 844.61 361.18 C 842.70 362.82 836.04 363.44 836.04 363.44 L 834.81 364.67 L 836.19 366.05 C 836.19 366.05 842.47 365.89 844.64 368.19 C 846.81 370.50 847.18 377.18 847.18 377.18 L 847.98 377.98 L 848.86 377.09 C 848.86 377.09 848.94 370.71 851.23 368.27 C 853.53 365.84 860.07 365.75 860.07 365.75 L 861.14 364.67 Z" fill="url(#SVGID_22_)" fill-rule="nonzero" group-id="1,12" node-id="866" stroke="none" target-height="27.710022" target-width="26.330017" target-x="834.81" target-y="350.27"></path></g></g><g node-id="1275"><g clip-path="url(#SVGID_2_)" group-id="1,13" node-id="869"><path d="M 496.23 159.92 L 495.10 158.78 C 495.10 158.78 488.05 158.04 486.55 156.55 C 485.06 155.05 484.02 146.48 484.02 146.48 L 483.07 145.52 L 482.08 146.50 C 482.08 146.50 481.61 154.79 479.70 156.43 C 477.79 158.07 471.13 158.69 471.13 158.69 L 469.90 159.92 L 471.27 161.29 C 471.27 161.29 477.56 161.13 479.73 163.44 C 481.90 165.75 482.27 172.42 482.27 172.42 L 483.07 173.22 L 483.95 172.34 C 483.95 172.34 484.03 165.96 486.32 163.52 C 488.62 161.09 495.16 161.00 495.16 161.00 L 496.23 159.92 Z" fill="url(#SVGID_23_)" fill-rule="nonzero" group-id="1,13" node-id="871" stroke="none" target-height="27.699997" target-width="26.330017" target-x="469.9" target-y="145.52"></path></g></g><g node-id="1276"><g clip-path="url(#SVGID_2_)" group-id="1,14" node-id="874"><path d="M 160.92 444.75 L 159.79 443.62 C 159.79 443.62 152.74 442.88 151.24 441.38 C 149.75 439.88 148.72 431.31 148.72 431.31 L 147.76 430.35 L 146.78 431.33 C 146.78 431.33 146.30 439.63 144.39 441.26 C 142.48 442.90 135.82 443.52 135.82 443.52 L 134.59 444.75 L 135.97 446.13 C 135.97 446.13 142.25 445.97 144.42 448.27 C 146.59 450.58 146.96 457.26 146.96 457.26 L 147.76 458.06 L 148.65 457.17 C 148.65 457.17 148.72 450.79 151.01 448.35 C 153.31 445.92 159.85 445.83 159.85 445.83 L 160.92 444.75 Z" fill="url(#SVGID_24_)" fill-rule="nonzero" group-id="1,14" node-id="876" stroke="none" target-height="27.709991" target-width="26.330002" target-x="134.59" target-y="430.35"></path></g></g><g node-id="1277"><g clip-path="url(#SVGID_2_)" group-id="1,15" node-id="879"><path d="M 413.69 646.47 L 412.55 645.33 C 412.55 645.33 405.50 644.59 404.00 643.10 C 402.51 641.60 401.48 633.03 401.48 633.03 L 400.52 632.07 L 399.54 633.05 C 399.54 633.05 399.06 641.34 397.15 642.98 C 395.24 644.62 388.59 645.23 388.59 645.23 L 387.35 646.47 L 388.73 647.84 C 388.73 647.84 395.01 647.68 397.18 649.99 C 399.36 652.30 399.72 658.97 399.72 658.97 L 400.52 659.77 L 401.41 658.89 C 401.41 658.89 401.48 652.51 403.78 650.07 C 406.08 647.63 412.61 647.54 412.61 647.54 L 413.69 646.47 Z" fill="url(#SVGID_25_)" fill-rule="nonzero" group-id="1,15" node-id="881" stroke="none" target-height="27.700012" target-width="26.339996" target-x="387.35" target-y="632.07"></path></g></g><g node-id="1278"><g clip-path="url(#SVGID_2_)" group-id="1,16" node-id="884"><path d="M 612.77 696.11 C 612.77 717.81 595.18 735.39 573.49 735.39 C 551.79 735.39 534.21 717.81 534.21 696.11 C 534.21 674.42 551.79 656.83 573.49 656.83 C 595.18 656.83 612.77 674.42 612.77 696.11 Z" fill="url(#SVGID_26_)" fill-rule="nonzero" group-id="1,16" node-id="886" stroke="none" target-height="78.56" target-width="78.56" target-x="534.21" target-y="656.83"></path></g></g><g node-id="1279"><g clip-path="url(#SVGID_2_)" group-id="1,17" node-id="889"><path d="M 384.30 47.32 C 384.30 69.01 366.71 86.60 345.01 86.60 C 323.32 86.60 305.73 69.01 305.73 47.32 C 305.73 25.62 323.32 8.04 345.01 8.04 C 366.71 8.04 384.30 25.62 384.30 47.32 Z" fill="url(#SVGID_27_)" fill-rule="nonzero" group-id="1,17" node-id="891" stroke="none" target-height="78.56" target-width="78.56998" target-x="305.73" target-y="8.04"></path></g></g><g node-id="1280"><g clip-path="url(#SVGID_2_)" group-id="1,18" node-id="894"><path d="M 259.46 546.25 C 259.46 610.38 207.47 662.37 143.34 662.37 C 79.21 662.37 27.22 610.38 27.22 546.25 C 27.22 482.11 79.21 430.12 143.34 430.12 C 207.47 430.12 259.46 482.11 259.46 546.25 Z" fill="url(#SVGID_28_)" fill-rule="nonzero" group-id="1,18" node-id="896" stroke="none" target-height="232.25" target-width="232.23999" target-x="27.22" target-y="430.12"></path><path d="M 230.53 546.25 C 230.53 594.40 191.49 633.43 143.34 633.43 C 95.19 633.43 56.16 594.40 56.16 546.25 C 56.16 498.09 95.19 459.06 143.34 459.06 C 191.49 459.06 230.53 498.09 230.53 546.25 Z" fill="#08acd2" fill-rule="nonzero" group-id="1,18" node-id="898" stroke="none" target-height="174.37" target-width="174.37" target-x="56.16" target-y="459.06"></path><g clip-path="url(#SVGID_30_)" group-id="1,18,32,59" node-id="902"><path d="M 236.78 533.69 C 236.78 533.69 227.59 531.03 213.46 531.50 C 199.32 531.98 148.25 551.27 118.78 553.14 C 89.31 555.01 53.11 547.42 53.11 547.42 L 53.56 567.68 C 53.56 567.68 100.30 577.55 115.98 576.35 C 131.66 575.15 191.75 562.06 207.11 563.86 C 222.47 565.66 234.59 566.33 234.59 566.33 L 236.78 533.69 Z" fill="#11afcb" fill-rule="nonzero" group-id="1,18,32,59" node-id="904" stroke="none" target-height="46.51996" target-width="183.67" target-x="53.11" target-y="531.03"></path><path d="M 113.03 576.64 C 95.29 576.64 53.96 567.96 53.52 567.86 L 53.37 567.83 L 52.92 547.18 L 53.15 547.23 C 53.51 547.31 89.67 554.80 118.77 552.95 C 135.71 551.88 160.21 544.92 179.90 539.33 C 194.67 535.14 207.42 531.52 213.45 531.31 C 227.45 530.84 236.74 533.48 236.83 533.51 L 236.98 533.55 L 234.77 566.53 L 234.58 566.52 C 234.46 566.52 222.28 565.83 207.09 564.05 C 197.43 562.92 169.49 567.78 147.04 571.70 C 133.49 574.06 121.79 576.10 116.00 576.54 C 115.11 576.61 114.11 576.64 113.03 576.64 Z M 53.75 567.52 C 56.66 568.13 100.93 577.31 115.97 576.16 C 121.74 575.72 133.44 573.68 146.97 571.32 C 169.45 567.41 197.42 562.53 207.13 563.67 C 221.28 565.33 232.82 566.04 234.42 566.13 L 236.58 533.83 C 235.35 533.50 226.44 531.26 213.46 531.69 C 207.48 531.89 194.75 535.51 180.01 539.70 C 160.30 545.29 135.77 552.26 118.79 553.33 C 115.60 553.54 112.31 553.63 109.00 553.63 C 83.40 553.63 56.11 548.22 53.31 547.65 L 53.75 567.52 Z" fill="#43cfd6" fill-rule="nonzero" group-id="1,18,32,59,66" node-id="908" stroke="none" target-height="46.46997" target-width="184.06" target-x="52.92" target-y="530.84"></path></g><g clip-path="url(#SVGID_30_)" group-id="1,18,32,60" node-id="912"><path d="M 238.08 552.83 C 238.08 552.83 227.01 548.66 219.54 549.01 C 212.07 549.37 135.41 570.89 121.09 571.72 C 106.76 572.54 60.98 560.93 52.20 562.82 C 43.41 564.70 59.17 587.65 59.17 587.65 C 59.17 587.65 86.42 599.46 124.73 601.68 C 163.03 603.90 220.05 590.22 233.39 595.21 C 246.73 600.20 238.08 552.83 238.08 552.83 Z" fill="#18b2ca" fill-rule="nonzero" group-id="1,18,32,60" node-id="914" stroke="none" target-height="55.24005" target-width="203.31999" target-x="43.41" target-y="548.66"></path><path d="M 133.82 602.21 C 130.70 602.21 127.65 602.14 124.71 601.97 C 104.90 600.82 88.10 597.06 77.51 594.11 C 66.02 590.91 59.12 587.94 59.06 587.91 L 58.98 587.88 L 58.94 587.81 C 58.45 587.11 47.19 570.61 49.58 564.60 C 50.02 563.50 50.88 562.81 52.14 562.54 C 56.61 561.58 70.33 564.03 84.85 566.63 C 99.17 569.19 113.98 571.84 121.07 571.43 C 129.27 570.96 157.54 563.79 182.48 557.46 C 200.63 552.86 216.32 548.88 219.53 548.73 C 226.97 548.38 238.07 552.52 238.18 552.57 L 238.33 552.62 L 238.36 552.78 C 238.63 554.26 244.87 588.96 237.70 594.96 C 236.51 595.95 235.03 596.13 233.29 595.48 C 226.75 593.03 209.29 595.15 189.08 597.62 C 171.19 599.79 151.28 602.21 133.82 602.21 Z M 59.36 587.42 C 60.14 587.75 66.86 590.55 77.67 593.56 C 88.24 596.50 104.99 600.25 124.74 601.40 C 144.06 602.52 167.94 599.61 189.01 597.05 C 209.30 594.58 226.82 592.45 233.49 594.94 C 235.04 595.52 236.30 595.39 237.33 594.52 C 244.01 588.93 238.29 555.65 237.83 553.04 C 236.48 552.55 226.41 548.98 219.55 549.30 C 216.40 549.45 200.75 553.42 182.62 558.01 C 157.66 564.35 129.36 571.52 121.10 572.00 C 113.94 572.41 99.10 569.75 84.75 567.19 C 70.28 564.60 56.62 562.16 52.26 563.10 C 51.18 563.33 50.48 563.89 50.11 564.81 C 47.91 570.35 58.56 586.24 59.36 587.42 Z" fill="#4ad6dd" fill-rule="nonzero" group-id="1,18,32,60,67" node-id="918" stroke="none" target-height="54.140015" target-width="197.68" target-x="47.19" target-y="548.38"></path></g><g clip-path="url(#SVGID_30_)" group-id="1,18,32,61" node-id="922"><path d="M 198.44 470.79 C 198.44 470.79 148.10 489.58 129.62 490.12 C 111.13 490.65 86.95 480.26 85.20 476.09 C 83.45 471.93 66.52 495.61 66.52 495.61 C 66.52 495.61 93.30 509.05 120.17 509.37 C 147.05 509.68 214.48 500.93 219.25 494.06 C 207.75 482.15 198.44 470.79 198.44 470.79 Z" fill="#11afcb" fill-rule="nonzero" group-id="1,18,32,61" node-id="924" stroke="none" target-height="38.889984" target-width="152.73001" target-x="66.52" target-y="470.79"></path><path d="M 121.60 509.56 C 121.11 509.56 120.63 509.56 120.17 509.56 C 106.26 509.39 92.39 505.66 83.20 502.55 C 73.25 499.19 66.50 495.81 66.43 495.78 L 66.23 495.68 L 66.36 495.50 C 66.96 494.66 81.05 475.02 84.62 475.42 C 84.97 475.46 85.23 475.67 85.38 476.02 C 86.25 478.09 92.90 481.74 101.20 484.69 C 111.20 488.25 121.56 490.16 129.61 489.93 C 139.14 489.65 157.32 484.42 170.90 480.07 C 185.62 475.36 198.25 470.66 198.38 470.61 L 198.50 470.56 L 198.59 470.67 C 198.68 470.78 208.02 482.16 219.38 493.93 L 219.49 494.04 L 219.40 494.17 C 218.25 495.83 213.60 497.65 205.58 499.58 C 198.51 501.28 188.99 503.01 178.03 504.60 C 157.21 507.60 134.84 509.56 121.60 509.56 Z M 66.80 495.54 C 67.98 496.12 74.35 499.16 83.33 502.19 C 92.49 505.29 106.32 509.01 120.17 509.18 C 146.81 509.49 213.56 500.86 219.00 494.08 C 208.26 482.94 199.35 472.18 198.38 471.01 C 197.02 471.52 184.96 475.97 171.02 480.43 C 157.42 484.78 139.19 490.03 129.62 490.31 C 121.52 490.54 111.12 488.62 101.07 485.05 C 92.55 482.01 85.95 478.36 85.03 476.17 C 84.93 475.94 84.79 475.82 84.58 475.79 C 81.83 475.49 70.94 489.76 66.80 495.54 Z" fill="#43cfd6" fill-rule="nonzero" group-id="1,18,32,61" node-id="926" stroke="none" target-height="39" target-width="153.26001" target-x="66.23" target-y="470.56"></path></g><g clip-path="url(#SVGID_30_)" group-id="1,18,32,62" node-id="929"><path d="M 193.23 455.36 C 193.23 455.36 174.84 478.00 134.20 481.55 C 93.56 485.10 85.31 468.20 85.31 468.20 L 133.87 451.36 L 193.23 455.36 Z" fill="#11afcb" fill-rule="nonzero" group-id="1,18,32,62" node-id="931" stroke="none" target-height="33.74002" target-width="107.92" target-x="85.31" target-y="451.36"></path><path d="M 123.47 482.23 C 118.39 482.23 113.68 481.87 109.38 481.15 C 103.62 480.19 98.59 478.58 94.43 476.37 C 87.31 472.61 85.23 468.46 85.14 468.28 L 85.05 468.09 L 85.25 468.02 L 133.85 451.17 L 193.61 455.19 L 193.38 455.48 C 191.78 457.44 186.74 462.44 179.06 467.28 C 170.21 472.86 155.25 479.90 134.22 481.74 C 130.48 482.06 126.89 482.23 123.47 482.23 Z M 85.58 468.31 C 86.43 469.86 89.25 473.21 94.64 476.06 C 101.13 479.49 113.26 483.19 134.18 481.36 C 155.14 479.53 170.04 472.52 178.86 466.96 C 187.18 461.71 191.78 456.74 192.84 455.52 L 133.90 451.55 L 85.58 468.31 Z" fill="#43cfd6" fill-rule="nonzero" group-id="1,18,32,62" node-id="933" stroke="none" target-height="32.01999" target-width="108.56" target-x="85.05" target-y="451.17"></path></g><path d="M 119.77 462.31 C 125.03 460.83 130.32 459.87 135.57 459.40 C 101.75 476.55 83.93 517.20 95.08 556.89 C 107.67 601.70 152.41 628.34 195.07 616.45 C 186.82 622.53 177.36 627.25 166.92 630.18 C 120.56 643.21 72.42 616.18 59.40 569.82 C 46.38 523.46 73.41 475.33 119.77 462.31 Z" fill="#0c88b0" fill-opacity="0.5" fill-rule="nonzero" group-id="1,18,33" node-id="939" stroke="none" target-height="183.81003" target-width="148.69" target-x="46.38" target-y="459.4"></path><path d="M 56.16 548.19 C 56.16 548.24 56.16 548.29 56.16 548.34 C 45.30 555.07 39.51 561.21 40.78 565.73 C 44.01 577.21 91.45 573.92 146.75 558.39 C 202.06 542.86 244.27 520.96 241.05 509.49 C 239.78 504.96 231.64 502.73 218.86 502.64 C 218.84 502.60 218.82 502.56 218.79 502.51 C 244.12 501.73 261.32 505.96 263.94 515.29 C 268.92 533.02 219.31 562.47 153.12 581.06 C 86.94 599.65 29.25 600.34 24.27 582.60 C 21.64 573.27 34.12 560.71 56.16 548.19 Z" fill="#4acfdd" fill-opacity="0.5" fill-rule="nonzero" group-id="1,18,34" node-id="944" stroke="none" target-height="98.610016" target-width="247.28001" target-x="21.64" target-y="501.73"></path></g></g><g node-id="1281"><g clip-path="url(#SVGID_2_)" group-id="1,19" node-id="948"><path d="M 984.32 570.11 C 984.32 615.28 947.70 651.90 902.53 651.90 C 857.36 651.90 820.75 615.28 820.75 570.11 C 820.75 524.94 857.36 488.32 902.53 488.32 C 947.70 488.32 984.32 524.94 984.32 570.11 Z" fill="url(#SVGID_31_)" fill-rule="nonzero" group-id="1,19" node-id="950" stroke="none" target-height="163.58002" target-width="163.57" target-x="820.75" target-y="488.32"></path><path d="M 902.53 638.52 C 893.30 638.52 884.34 636.71 875.90 633.14 C 867.76 629.70 860.44 624.76 854.16 618.48 C 847.88 612.20 842.95 604.88 839.50 596.74 C 835.93 588.30 834.12 579.34 834.12 570.11 C 834.12 560.87 835.93 551.91 839.50 543.48 C 842.94 535.34 847.88 528.02 854.16 521.74 C 860.44 515.45 867.76 510.52 875.90 507.07 C 884.34 503.51 893.30 501.70 902.53 501.70 C 911.77 501.70 920.73 503.51 929.16 507.07 C 937.31 510.52 944.62 515.45 950.91 521.74 C 957.19 528.02 962.12 535.34 965.57 543.48 C 969.13 551.91 970.94 560.87 970.94 570.11 C 970.94 579.34 969.13 588.30 965.57 596.74 C 962.12 604.88 957.19 612.20 950.91 618.48 C 944.62 624.76 937.31 629.70 929.16 633.14 C 920.73 636.71 911.77 638.52 902.53 638.52 Z M 902.53 502.08 C 865.02 502.08 834.50 532.60 834.50 570.11 C 834.50 607.62 865.02 638.14 902.53 638.14 C 940.04 638.14 970.56 607.62 970.56 570.11 C 970.56 532.60 940.04 502.08 902.53 502.08 Z" fill="#70eb8f" fill-opacity="0.3" fill-rule="nonzero" group-id="1,19,35" node-id="954" stroke="none" target-height="136.82" target-width="136.82" target-x="834.12" target-y="501.7"></path><path d="M 902.53 633.21 C 885.68 633.21 869.84 626.64 857.92 614.73 C 846.00 602.81 839.44 586.96 839.44 570.11 C 839.44 553.26 846.00 537.41 857.92 525.50 C 869.84 513.58 885.68 507.01 902.53 507.01 C 919.39 507.01 935.23 513.58 947.15 525.50 C 959.07 537.41 965.63 553.26 965.63 570.11 C 965.63 586.96 959.07 602.81 947.15 614.73 C 935.23 626.64 919.39 633.21 902.53 633.21 Z M 902.53 508.53 C 868.58 508.53 840.96 536.16 840.96 570.11 C 840.96 604.06 868.58 631.69 902.53 631.69 C 936.49 631.69 964.11 604.06 964.11 570.11 C 964.11 536.16 936.49 508.53 902.53 508.53 Z" fill="#70eb8f" fill-opacity="0.7" fill-rule="nonzero" group-id="1,19,36" node-id="959" stroke="none" target-height="126.20001" target-width="126.19" target-x="839.44" target-y="507.01"></path><path d="M 960.21 570.11 C 960.21 601.96 934.39 627.78 902.53 627.78 C 870.68 627.78 844.86 601.96 844.86 570.11 C 844.86 538.26 870.68 512.44 902.53 512.44 C 934.39 512.44 960.21 538.26 960.21 570.11 Z" fill="url(#SVGID_32_)" fill-rule="nonzero" group-id="1,19" node-id="962" stroke="none" target-height="115.34003" target-width="115.35004" target-x="844.86" target-y="512.44"></path><path d="M 902.53 512.44 C 899.50 512.44 896.52 512.67 893.61 513.12 C 921.23 517.41 934.08 541.29 934.08 570.11 C 934.08 598.93 921.23 622.81 893.61 627.10 C 896.52 627.55 899.50 627.78 902.53 627.78 C 934.39 627.78 960.21 601.96 960.21 570.11 C 960.21 538.26 934.39 512.44 902.53 512.44 Z" fill="#43c85e" fill-rule="nonzero" group-id="1,19" node-id="964" stroke="none" target-height="115.34003" target-width="66.60004" target-x="893.61" target-y="512.44"></path><path d="M 927.07 537.93 C 927.07 543.56 921.22 548.12 914.00 548.12 C 906.79 548.12 900.94 543.56 900.94 537.93 C 900.94 532.30 906.79 527.73 914.00 527.73 C 921.22 527.73 927.07 532.30 927.07 537.93 Z" fill="#43c85e" fill-rule="nonzero" group-id="1,19" node-id="966" stroke="none" target-height="20.390015" target-width="26.130005" target-x="900.94" target-y="527.73"></path><path d="M 874.17 593.37 C 874.17 597.24 869.89 600.38 864.62 600.38 C 859.34 600.38 855.06 597.24 855.06 593.37 C 855.06 589.50 859.34 586.36 864.62 586.36 C 869.89 586.36 874.17 589.50 874.17 593.37 Z" fill="#43c85e" fill-rule="nonzero" group-id="1,19" node-id="968" stroke="none" target-height="14.02002" target-width="19.109985" target-x="855.06" target-y="586.36"></path><path d="M 881.50 548.12 C 881.50 549.93 879.51 551.39 877.04 551.39 C 874.58 551.39 872.58 549.93 872.58 548.12 C 872.58 546.32 874.58 544.85 877.04 544.85 C 879.51 544.85 881.50 546.32 881.50 548.12 Z" fill="#43c85e" fill-rule="nonzero" group-id="1,19" node-id="970" stroke="none" target-height="6.540039" target-width="8.919983" target-x="872.58" target-y="544.85"></path><path d="M 895.52 613.45 C 895.52 615.25 893.53 616.72 891.06 616.72 C 888.60 616.72 886.60 615.25 886.60 613.45 C 886.60 611.64 888.60 610.17 891.06 610.17 C 893.53 610.17 895.52 611.64 895.52 613.45 Z" fill="#43c85e" fill-rule="nonzero" group-id="1,19" node-id="972" stroke="none" target-height="6.549988" target-width="8.920044" target-x="886.6" target-y="610.17"></path><path d="M 915.92 618.02 C 915.92 620.60 912.92 622.69 909.23 622.69 C 905.53 622.69 902.53 620.60 902.53 618.02 C 902.53 615.45 905.53 613.36 909.23 613.36 C 912.92 613.36 915.92 615.45 915.92 618.02 Z" fill="#43c85e" fill-rule="nonzero" group-id="1,19" node-id="974" stroke="none" target-height="9.330017" target-width="13.389954" target-x="902.53" target-y="613.36"></path><path d="M 940.13 567.52 C 940.13 571.24 937.14 574.25 933.44 574.25 C 929.75 574.25 926.75 571.24 926.75 567.52 C 926.75 563.80 929.75 560.78 933.44 560.78 C 937.14 560.78 940.13 563.80 940.13 567.52 Z" fill="#43c85e" fill-rule="nonzero" group-id="1,19" node-id="976" stroke="none" target-height="13.469971" target-width="13.380005" target-x="926.75" target-y="560.78"></path><path d="M 909.60 583.17 C 909.60 584.23 908.43 585.09 906.99 585.09 C 905.55 585.09 904.39 584.23 904.39 583.17 C 904.39 582.12 905.55 581.26 906.99 581.26 C 908.43 581.26 909.60 582.12 909.60 583.17 Z" fill="#43c85e" fill-rule="nonzero" group-id="1,19" node-id="978" stroke="none" target-height="3.830017" target-width="5.209961" target-x="904.39" target-y="581.26"></path></g></g><g node-id="1282"><g clip-path="url(#SVGID_2_)" group-id="1,20" node-id="981"><path d="M 511.19 470.44 C 511.19 470.44 512.23 526.34 511.19 533.50 C 510.14 540.67 446.20 582.94 440.26 584.69 C 434.32 586.43 425.24 563.55 425.24 563.55 C 425.24 563.55 467.16 530.53 469.26 526.34 C 470.48 523.02 467.16 489.48 466.81 487.39 C 466.46 485.29 463.32 484.59 459.48 489.66 C 455.63 494.73 431.88 525.64 430.83 526.69 C 429.78 527.74 369.86 571.59 360.08 576.65 C 350.30 581.72 341.56 562.85 341.56 562.85 C 341.56 562.85 396.07 511.85 400.43 505.38 C 404.80 498.92 422.44 473.94 423.14 470.44 C 423.84 466.95 427.51 454.37 429.61 452.28 C 431.70 450.18 511.19 470.44 511.19 470.44 Z" fill="#d9e6ff" fill-rule="nonzero" group-id="1,20" node-id="983" stroke="none" target-height="136.25" target-width="170.66998" target-x="341.56" target-y="450.18"></path><path d="M 431.74 525.59 L 430.47 525.05 L 422.26 521.93 C 422.26 521.93 424.56 525.71 419.96 529.65 C 415.36 533.59 383.32 556.76 383.32 556.76 C 383.32 556.76 386.18 556.88 389.16 557.00 C 408.57 543.22 430.20 527.32 430.83 526.69 C 430.93 526.59 431.25 526.20 431.74 525.59 Z" fill="#94a4c4" fill-opacity="0.8" fill-rule="nonzero" group-id="1,20,37" node-id="987" stroke="none" target-height="35.070007" target-width="48.419983" target-x="383.32" target-y="521.93"></path><path d="M 412.89 515.69 C 412.89 515.69 423.24 521.60 423.57 521.76 C 423.90 521.93 430.47 525.05 430.47 525.05 L 432.55 524.57 C 438.27 517.33 456.19 494.00 459.48 489.66 C 463.06 484.93 466.04 485.22 466.71 486.99 C 466.44 485.76 465.28 482.42 460.70 482.82 C 455.12 483.32 437.70 514.21 431.30 515.19 C 424.89 516.18 414.58 517.66 403.96 500.25 C 403.96 500.25 403.96 500.25 403.96 500.25 C 403.65 500.75 403.46 501.00 403.35 501.12 C 403.30 501.20 403.25 501.27 403.20 501.35 L 403.20 503.86 L 405.83 512.07 L 412.89 515.69 Z" fill="#94a4c4" fill-opacity="0.8" fill-rule="nonzero" group-id="1,20,38" node-id="992" stroke="none" target-height="42.629974" target-width="63.50998" target-x="403.2" target-y="482.42"></path><path d="M 500.30 539.67 C 498.82 541.97 448.71 576.97 448.71 576.97 L 451.24 578.50 C 470.76 566.38 508.69 540.25 511.08 533.90 L 511.14 533.43 L 502.27 534.91 C 502.27 534.91 501.78 537.37 500.30 539.67 Z" fill="#94a4c4" fill-opacity="0.8" fill-rule="nonzero" group-id="1,20,39" node-id="997" stroke="none" target-height="45.070007" target-width="62.430023" target-x="448.71" target-y="533.43"></path><path d="M 511.19 470.44 C 511.19 470.44 509.44 470.00 506.45 469.25 C 506.96 485.86 507.70 522.52 504.41 525.05 C 500.14 528.34 475.88 527.12 469.52 523.70 C 469.52 523.70 469.52 523.70 469.52 523.70 C 469.52 524.05 469.51 524.37 469.49 524.65 C 469.53 526.54 470.24 526.98 470.24 526.98 L 485.51 532.61 L 504.08 534.42 L 511.19 533.49 C 512.23 526.26 511.19 470.44 511.19 470.44 Z" fill="url(#SVGID_33_)" fill-rule="nonzero" group-id="1,20" node-id="1000" stroke="none" target-height="65.16998" target-width="42.73999" target-x="469.49" target-y="469.25"></path><path d="M 511.19 470.44 C 511.19 470.44 512.93 459.26 514.50 453.85 C 516.08 448.43 531.27 429.04 534.94 419.44 C 538.61 409.83 530.40 369.82 530.40 369.82 L 515.20 360.39 L 465.07 360.39 C 465.07 360.39 436.42 428.17 433.27 431.49 C 430.13 434.81 428.42 444.52 427.88 456.87 C 447.23 462.36 511.19 470.44 511.19 470.44 Z" fill="#d9e6ff" fill-rule="nonzero" group-id="1,20" node-id="1002" stroke="none" target-height="110.04999" target-width="110.72998" target-x="427.88" target-y="360.39"></path><path d="M 506.49 469.83 C 509.46 470.22 511.19 470.44 511.19 470.44 C 511.19 470.44 511.90 465.87 512.83 461.16 C 512.83 461.00 512.83 460.91 512.83 460.91 C 512.83 460.91 509.20 460.25 506.21 459.50 C 506.30 462.24 506.40 465.80 506.49 469.83 Z" fill="url(#SVGID_34_)" fill-rule="nonzero" group-id="1,20" node-id="1004" stroke="none" target-height="10.940002" target-width="6.6200256" target-x="506.21" target-y="459.5"></path><path d="M 512.83 460.91 C 512.83 460.91 509.20 460.25 506.21 459.49 C 506.73 476.10 507.70 522.51 504.41 525.05 C 500.14 528.34 475.88 527.12 469.52 523.70 C 469.52 523.70 469.52 523.70 469.52 523.70 C 469.52 524.05 469.51 524.37 469.49 524.65 C 469.53 526.54 470.24 526.98 470.24 526.98 L 485.51 532.61 L 504.08 534.42 L 511.19 533.49 C 512.23 526.26 512.83 460.91 512.83 460.91 Z" fill="#94a4c4" fill-opacity="0.8" fill-rule="nonzero" group-id="1,20,40" node-id="1008" stroke="none" target-height="74.92999" target-width="43.340027" target-x="469.49" target-y="459.49"></path><path d="M 528.89 414.48 C 528.89 414.48 515.58 451.28 500.96 454.24 C 486.34 457.19 471.22 457.85 471.22 457.85 L 483.00 460.97 L 512.86 460.97 C 513.38 458.38 513.95 455.75 514.50 453.85 C 515.98 448.78 529.39 431.46 534.11 421.38 L 528.89 414.48 Z" fill="#94a4c4" fill-opacity="0.8" fill-rule="nonzero" group-id="1,20,41" node-id="1013" stroke="none" target-height="46.48999" target-width="62.889984" target-x="471.22" target-y="414.48"></path><path d="M 458.43 357.60 L 414.06 376.29 C 414.06 376.29 415.46 404.41 427.51 404.59 C 439.91 399.87 443.41 398.47 443.41 398.47 L 458.43 357.60 Z" fill="#dae4f7" fill-rule="nonzero" group-id="1,20" node-id="1016" stroke="none" target-height="46.98999" target-width="44.369995" target-x="414.06" target-y="357.6"></path><path d="M 487.78 331.22 C 487.78 326.85 494.24 297.33 521.49 297.33 C 548.74 297.33 560.62 317.07 560.62 334.89 C 560.62 352.70 542.53 365.51 534.64 365.51 C 514.90 365.51 487.78 337.51 487.78 337.51 L 487.78 331.22 Z" fill="#ced9ed" fill-rule="nonzero" group-id="1,20" node-id="1018" stroke="none" target-height="68.18002" target-width="72.84" target-x="487.78" target-y="297.33"></path><path d="M 560.62 334.88 C 560.62 325.26 557.16 315.09 549.68 307.76 C 543.54 307.35 551.07 326.41 551.73 331.34 C 552.38 336.27 543.18 348.26 539.73 350.40 C 536.28 352.53 537.27 356.64 538.42 357.46 C 539.57 358.28 542.42 363.01 542.42 363.02 C 550.76 358.46 560.62 348.04 560.62 334.88 Z" fill="#f8faff" fill-rule="nonzero" group-id="1,20" node-id="1020" stroke="none" target-height="55.669983" target-width="24.339966" target-x="536.28" target-y="307.35"></path><path d="M 560.62 334.88 C 560.62 325.26 557.16 315.09 549.68 307.76 C 543.54 307.35 551.89 326.90 552.55 331.83 C 553.21 336.76 544.50 348.26 541.05 350.40 C 537.60 352.53 538.09 356.81 539.24 357.63 C 540.39 358.45 542.42 363.01 542.42 363.02 C 550.76 358.46 560.62 348.04 560.62 334.88 Z" fill="url(#SVGID_35_)" fill-rule="nonzero" group-id="1,20" node-id="1022" stroke="none" target-height="55.669983" target-width="23.02002" target-x="537.6" target-y="307.35"></path><path d="M 476.07 344.14 C 476.07 344.14 479.27 339.72 479.93 338.73 C 480.58 337.75 486.97 336.28 493.40 337.75 C 503.15 339.97 519.52 345.47 531.52 355.65 C 536.58 360.37 544.35 366.43 539.66 367.20 C 534.97 367.98 534.94 368.08 534.94 368.08 L 512.58 358.64 L 476.07 344.14 Z" fill="#db6445" fill-rule="nonzero" group-id="1,20" node-id="1024" stroke="none" target-height="31.799988" target-width="68.27997" target-x="476.07" target-y="336.28"></path><path d="M 428.74 441.67 C 428.74 441.67 446.27 455.15 463.43 458.55 C 480.58 461.96 507.42 463.31 512.65 462.06 C 514.92 461.46 513.08 459.88 513.08 459.88 C 513.08 459.88 472.37 458.51 463.66 455.22 C 454.95 451.94 429.77 439.98 429.77 439.98 C 429.77 439.98 428.48 439.30 428.74 441.67 Z" fill="#db6445" fill-rule="nonzero" group-id="1,20" node-id="1026" stroke="none" target-height="24.01001" target-width="86.43997" target-x="428.48" target-y="439.3"></path><path d="M 507.35 459.04 C 503.30 459.04 499.61 458.02 499.36 457.95 C 498.49 457.71 497.98 456.80 498.23 455.93 C 498.47 455.05 499.55 452.90 500.42 453.15 L 501.12 453.42 C 503.55 454.10 510.84 454.59 514.60 453.09 C 515.42 452.76 515.25 454.07 515.34 454.89 C 515.44 455.79 514.85 457.01 514.10 457.52 C 512.01 458.95 510.00 459.04 507.35 459.04 Z" fill="#6a82b7" fill-rule="nonzero" group-id="1,20,42" node-id="1030" stroke="none" target-height="6.279999" target-width="17.459991" target-x="497.98" target-y="452.76"></path><path d="M 480.62 342.40 C 475.37 342.40 460.28 346.74 456.33 357.60 C 454.94 361.44 430.83 413.32 430.83 413.32 C 430.83 413.32 420.52 441.10 445.68 448.61 C 470.83 456.12 494.59 462.06 494.59 462.06 C 494.59 462.06 500.88 461.88 504.02 453.67 C 507.17 445.46 527.43 403.71 527.43 403.71 C 527.43 403.71 538.96 372.09 537.04 368.95 C 535.12 365.81 533.02 363.01 530.58 361.96 C 528.13 360.91 495.64 342.40 480.62 342.40 Z" fill="#d9e6ff" fill-rule="nonzero" group-id="1,20,43" node-id="1035" stroke="none" target-height="119.66" target-width="118.44003" target-x="420.52" target-y="342.4"></path><path d="M 494.55 462.47 L 494.49 462.46 C 494.25 462.40 470.44 456.43 445.56 449.00 C 438.55 446.91 433.60 443.05 430.84 437.53 C 428.04 431.92 428.09 425.59 428.61 421.27 C 429.18 416.61 430.39 413.31 430.44 413.18 L 430.46 413.15 C 430.70 412.63 454.57 361.24 455.95 357.45 C 458.15 351.39 463.61 347.64 467.81 345.56 C 472.75 343.10 477.91 341.99 480.62 341.99 C 493.51 341.99 519.35 355.61 527.84 360.09 C 529.32 360.87 530.39 361.43 530.74 361.58 C 533.48 362.76 535.73 366.02 537.39 368.73 C 537.71 369.26 538.69 370.86 533.35 387.63 C 530.73 395.84 527.85 403.77 527.82 403.85 L 527.80 403.89 C 527.60 404.31 507.51 445.72 504.41 453.82 C 503.49 456.22 501.68 459.48 498.32 461.30 C 496.30 462.41 494.67 462.46 494.60 462.47 L 494.55 462.47 Z M 431.21 413.48 C 431.03 413.98 426.47 426.92 431.58 437.17 C 434.23 442.47 439.01 446.19 445.80 448.21 C 470.05 455.46 493.30 461.31 494.63 461.64 C 495.27 461.61 500.75 461.06 503.64 453.53 C 506.73 445.46 526.52 404.64 527.05 403.55 C 527.21 403.11 530.02 395.38 532.57 387.38 C 537.28 372.57 537.02 369.71 536.69 369.16 C 535.10 366.56 532.94 363.42 530.41 362.34 C 530.03 362.18 529.01 361.64 527.46 360.82 C 519.01 356.36 493.30 342.81 480.62 342.81 C 478.00 342.81 473.00 343.90 468.17 346.29 C 464.11 348.31 458.83 351.93 456.72 357.74 C 455.33 361.54 432.30 411.14 431.21 413.48 Z" fill="#6a82b7" fill-rule="nonzero" group-id="1,20,43" node-id="1037" stroke="none" target-height="120.48001" target-width="112.22" target-x="426.47" target-y="341.99"></path><path d="M 495.69 375.62 C 495.69 383.82 489.03 390.47 480.83 390.47 C 472.63 390.47 465.98 383.82 465.98 375.62 C 465.98 367.41 472.63 360.76 480.83 360.76 C 489.03 360.76 495.69 367.41 495.69 375.62 Z" fill="#f8f9ff" fill-rule="nonzero" group-id="1,20,44" node-id="1042" stroke="none" target-height="29.709991" target-width="29.709991" target-x="465.98" target-y="360.76"></path><path d="M 495.69 375.12 C 495.69 383.05 489.26 389.47 481.33 389.47 C 473.40 389.47 466.98 383.05 466.98 375.12 C 466.98 367.19 473.40 360.76 481.33 360.76 C 489.26 360.76 495.69 367.19 495.69 375.12 Z" fill="url(#SVGID_36_)" fill-rule="nonzero" group-id="1,20,44" node-id="1044" stroke="none" target-height="28.709991" target-width="28.709991" target-x="466.98" target-y="360.76"></path><path d="M 495.69 374.42 C 495.69 381.96 489.57 388.08 482.03 388.08 C 474.48 388.08 468.37 381.96 468.37 374.42 C 468.37 366.88 474.48 360.76 482.03 360.76 C 489.57 360.76 495.69 366.88 495.69 374.42 Z" fill="#db6445" fill-rule="nonzero" group-id="1,20,44" node-id="1046" stroke="none" target-height="27.319977" target-width="27.320007" target-x="468.37" target-y="360.76"></path><path d="M 487.51 374.42 C 487.51 377.45 485.06 379.90 482.03 379.90 C 479.00 379.90 476.54 377.45 476.54 374.42 C 476.54 371.39 479.00 368.94 482.03 368.94 C 485.06 368.94 487.51 371.39 487.51 374.42 Z" fill="#ef9786" fill-rule="nonzero" group-id="1,20,44" node-id="1048" stroke="none" target-height="10.959991" target-width="10.970001" target-x="476.54" target-y="368.94"></path><path d="M 504.02 453.67 C 507.17 445.46 527.43 403.71 527.43 403.71 C 527.43 403.71 534.40 384.61 536.60 374.62 C 536.15 371.26 535.61 368.82 534.97 368.14 C 532.17 365.18 526.75 367.98 524.12 370.61 C 521.50 373.24 485.02 435.67 485.51 445.04 C 485.98 453.87 493.13 460.88 494.43 462.02 C 494.54 462.04 494.59 462.06 494.59 462.06 C 494.59 462.06 500.88 461.88 504.02 453.67 Z" fill="#a1b5d6" fill-rule="nonzero" group-id="1,20,45" node-id="1053" stroke="none" target-height="96.880005" target-width="51.579987" target-x="485.02" target-y="365.18"></path><path d="M 494.55 462.47 L 494.23 462.39 L 494.16 462.33 C 493.81 462.02 485.61 454.70 485.10 445.06 C 484.60 435.45 521.25 372.91 523.84 370.32 C 525.70 368.45 528.99 366.46 531.84 366.46 C 531.86 366.46 531.89 366.46 531.92 366.46 C 533.29 366.48 534.41 366.95 535.27 367.86 C 535.69 368.31 536.33 369.49 537.00 374.57 L 537.01 374.64 L 537.00 374.71 C 534.82 384.61 527.89 403.66 527.82 403.85 L 527.80 403.89 C 527.60 404.31 507.51 445.72 504.41 453.82 L 504.02 453.67 L 504.41 453.82 C 501.20 462.19 494.87 462.46 494.60 462.47 L 494.55 462.47 Z M 494.63 461.64 L 494.63 461.64 C 494.91 461.62 496.30 461.48 497.97 460.56 C 499.69 459.62 502.07 457.63 503.64 453.53 C 506.73 445.46 526.52 404.64 527.05 403.55 C 527.31 402.84 534.02 384.33 536.18 374.61 C 535.55 369.96 534.97 368.74 534.67 368.42 C 533.97 367.68 533.04 367.30 531.91 367.28 C 530.06 367.26 526.93 368.38 524.41 370.90 C 523.17 372.14 513.53 388.14 504.01 405.49 C 492.14 427.12 485.72 441.16 485.92 445.01 C 486.39 453.95 493.75 460.86 494.63 461.64 Z" fill="#6a82b7" fill-rule="nonzero" group-id="1,20,45" node-id="1055" stroke="none" target-height="96.01001" target-width="52.410004" target-x="484.6" target-y="366.46"></path><path d="M 538.79 365.46 C 544.20 365.36 555.77 366.66 556.43 393.75 C 556.78 408.08 557.48 420.13 561.84 423.98 C 566.21 427.82 585.43 440.05 585.43 440.05 C 585.43 440.05 591.54 447.38 588.22 452.10 C 584.90 456.82 578.96 466.07 574.25 466.25 C 569.53 466.43 538.78 447.21 535.82 442.49 C 532.85 437.77 523.59 415.76 521.14 401.27 C 518.70 386.77 518.35 365.81 538.79 365.46 Z" fill="#eef3ff" fill-rule="nonzero" group-id="1,20" node-id="1058" stroke="none" target-height="101.07001" target-width="73.19" target-x="518.35" target-y="365.36"></path><path d="M 584.55 451.05 C 584.55 451.05 595.38 453.32 600.28 455.59 C 605.17 457.87 614.95 463.45 612.33 468.87 C 612.33 468.87 611.46 470.62 606.74 468.52 C 607.26 470.09 608.84 476.03 607.09 477.78 C 605.34 479.00 602.89 477.43 602.72 476.91 C 602.37 479.18 602.20 482.15 600.27 482.15 C 600.27 482.15 598.53 482.67 596.78 480.23 C 596.08 482.67 591.72 483.54 591.72 480.57 C 591.72 477.60 590.67 473.24 589.79 472.54 C 589.79 472.54 589.97 476.73 586.65 476.38 C 583.33 476.03 582.28 470.62 582.28 464.50 C 582.11 463.28 577.57 463.63 577.57 463.63 L 584.55 451.05 Z" fill="#eef3ff" fill-rule="nonzero" group-id="1,20" node-id="1060" stroke="none" target-height="32.49002" target-width="37.380005" target-x="577.57" target-y="451.05"></path><path d="M 584.92 473.79 C 584.92 473.79 583.60 464.42 583.11 462.94 C 582.62 461.47 578.89 461.82 578.89 461.82 C 578.89 461.82 579.04 462.54 579.26 463.59 C 580.57 463.61 582.18 463.79 582.28 464.50 C 582.28 470.62 583.33 476.03 586.65 476.38 C 586.86 476.40 587.05 476.41 587.23 476.40 C 585.51 475.83 584.92 473.79 584.92 473.79 Z" fill="#94a4c4" fill-opacity="0.8" fill-rule="nonzero" group-id="1,20,46" node-id="1064" stroke="none" target-height="14.940002" target-width="8.339966" target-x="578.89" target-y="461.47"></path><path d="M 415.11 381.18 C 415.11 381.18 409.52 373.49 405.32 373.32 C 401.13 373.14 396.07 383.62 395.54 385.02 C 395.02 386.42 393.79 401.96 397.11 401.96 C 400.43 401.96 402.53 397.25 404.10 397.25 C 405.67 397.25 412.83 403.71 416.50 403.54 C 420.17 403.36 423.67 402.14 423.67 402.14 L 415.11 381.18 Z" fill="#dae4f7" fill-rule="nonzero" group-id="1,20" node-id="1067" stroke="none" target-height="30.569977" target-width="29.880005" target-x="393.79" target-y="373.14"></path><path d="M 459.24 573.41 C 459.24 573.41 459.30 575.25 456.51 576.83 C 453.71 578.40 442.53 586.96 441.31 588.71 C 440.09 590.45 442.88 605.30 444.11 608.10 C 445.33 610.89 451.09 620.67 440.26 626.44 C 429.95 619.10 405.15 579.10 405.15 579.10 L 438.87 551.50 C 438.87 551.50 440.26 550.66 442.14 551.67 C 443.27 552.28 448.51 554.82 452.49 559.55 C 457.00 564.93 459.24 573.41 459.24 573.41 Z" fill="#b3cbf2" fill-rule="nonzero" group-id="1,20" node-id="1069" stroke="none" target-height="75.78003" target-width="54.149994" target-x="405.15" target-y="550.66"></path><path d="M 407.31 578.61 C 412.70 579.06 422.71 578.65 424.37 595.17 C 424.89 600.41 430.65 608.97 432.93 610.54 C 435.20 612.11 442.86 619.94 441.81 623.96 C 440.76 627.98 434.10 630.98 425.94 628.01 C 422.10 626.61 416.16 618.23 413.36 612.99 C 410.57 607.75 403.75 595.17 402.01 592.90 C 400.26 590.63 401.02 578.09 407.31 578.61 Z" fill="#839ab7" fill-rule="nonzero" group-id="1,20" node-id="1071" stroke="none" target-height="52.889954" target-width="42.599976" target-x="400.26" target-y="578.09"></path><path d="M 339.99 562.50 L 376.50 526.87 C 376.50 526.87 384.19 523.72 392.40 534.38 C 400.61 545.03 398.51 553.94 398.51 553.94 L 358.16 578.58 L 339.99 562.50 Z" fill="#b3cbf2" fill-rule="nonzero" group-id="1,20" node-id="1073" stroke="none" target-height="54.860046" target-width="60.619995" target-x="339.99" target-y="523.72"></path><path d="M 343.83 599.36 C 339.16 600.01 327.94 596.92 324.97 586.61 C 324.44 576.30 334.58 562.50 339.99 562.50 C 345.41 562.50 358.16 568.79 358.16 578.57 C 358.16 588.36 353.97 597.97 343.83 599.36 Z" fill="#839ab7" fill-rule="nonzero" group-id="1,20" node-id="1075" stroke="none" target-height="37.51001" target-width="33.72" target-x="324.44" target-y="562.5"></path><path d="M 533.46 437.94 C 533.46 437.94 535.71 438.67 539.08 436.49 C 541.87 434.69 554.23 425.19 559.30 419.91 C 560.42 418.90 561.00 421.30 560.47 422.32 C 559.94 423.35 543.18 438.96 539.90 440.44 C 536.61 441.91 536.35 441.60 535.33 441.67 C 534.31 441.75 531.45 438.89 533.46 437.94 Z" fill="#db6445" fill-rule="nonzero" group-id="1,20" node-id="1077" stroke="none" target-height="23.01001" target-width="29.549988" target-x="531.45" target-y="418.9"></path><path d="M 573.27 466.12 C 573.27 466.12 586.15 454.24 588.74 446.02 C 589.85 448.32 590.67 450.39 584.34 458.06 C 578.02 465.74 574.93 468.30 573.27 466.12 Z" fill="#db6445" fill-rule="nonzero" group-id="1,20" node-id="1079" stroke="none" target-height="22.279999" target-width="17.399963" target-x="573.27" target-y="446.02"></path><path d="M 414.04 376.36 C 414.04 376.36 412.73 404.12 427.84 404.62 C 431.46 404.62 427.84 403.14 426.53 402.15 C 425.21 401.17 419.96 398.87 417.99 386.21 C 416.01 373.56 415.19 374.22 414.04 376.36 Z" fill="#bc4839" fill-rule="nonzero" group-id="1,20" node-id="1081" stroke="none" target-height="31.059998" target-width="18.72998" target-x="412.73" target-y="373.56"></path><path d="M 593.14 469.14 L 593.39 469.75 L 593.45 470.30 L 593.32 470.78 L 593.03 471.09 L 592.62 471.19 L 592.14 471.05 L 591.69 470.73 L 591.29 470.20 L 591.04 469.59 L 590.98 469.04 L 591.10 468.56 L 591.39 468.25 L 591.80 468.15 L 592.29 468.29 L 592.73 468.61 L 593.14 469.14 Z" fill="#db6445" fill-rule="nonzero" group-id="1,20,47" node-id="1085" stroke="none" target-height="3.0400085" target-width="2.4700317" target-x="590.98" target-y="468.15"></path><path d="M 597.31 467.69 L 597.65 468.25 L 597.79 468.79 L 597.74 469.29 L 597.50 469.64 L 597.11 469.79 L 596.61 469.73 L 596.12 469.48 L 595.64 469.02 L 595.30 468.45 L 595.16 467.92 L 595.21 467.42 L 595.45 467.07 L 595.84 466.91 L 596.34 466.97 L 596.83 467.23 L 597.31 467.69 Z" fill="#db6445" fill-rule="nonzero" group-id="1,20,48" node-id="1090" stroke="none" target-height="2.880005" target-width="2.630005" target-x="595.16" target-y="466.91"></path><path d="M 600.86 464.82 L 601.26 465.35 L 601.46 465.86 L 601.47 466.36 L 601.27 466.74 L 600.90 466.94 L 600.39 466.93 L 599.88 466.73 L 599.35 466.33 L 598.95 465.80 L 598.75 465.29 L 598.75 464.79 L 598.95 464.41 L 599.32 464.21 L 599.82 464.22 L 600.34 464.42 L 600.86 464.82 Z" fill="#db6445" fill-rule="nonzero" group-id="1,20,49" node-id="1095" stroke="none" target-height="2.730011" target-width="2.7199707" target-x="598.75" target-y="464.21"></path><path d="M 602.34 460.10 L 602.83 460.55 L 603.12 461.02 L 603.22 461.51 L 603.09 461.91 L 602.76 462.18 L 602.27 462.26 L 601.72 462.16 L 601.13 461.87 L 600.64 461.42 L 600.35 460.95 L 600.25 460.46 L 600.38 460.06 L 600.71 459.79 L 601.20 459.71 L 601.74 459.80 L 602.34 460.10 Z" fill="#db6445" fill-rule="nonzero" group-id="1,20,50" node-id="1100" stroke="none" target-height="2.5500183" target-width="2.9699707" target-x="600.25" target-y="459.71"></path><path d="M 511.65 530.73 C 511.65 530.73 513.72 534.57 509.97 535.64 C 502.60 537.37 476.83 534.64 468.92 526.86 C 467.11 524.89 469.46 525.07 469.46 525.07 C 469.46 525.07 499.51 537.23 511.65 530.73 Z" fill="#db6445" fill-rule="nonzero" group-id="1,20" node-id="1103" stroke="none" target-height="12.47998" target-width="46.609985" target-x="467.11" target-y="524.89"></path><path d="M 403.20 501.35 C 403.20 501.35 404.68 509.28 409.28 512.56 C 413.88 515.85 430.83 524.11 432.54 524.58 C 434.25 525.05 432.28 526.69 430.80 526.37 C 429.32 526.04 409.94 517.99 406.48 514.37 C 403.03 510.76 402.54 505.14 402.05 503.02 C 401.56 500.90 403.20 501.35 403.20 501.35 Z" fill="#db6445" fill-rule="nonzero" group-id="1,20" node-id="1105" stroke="none" target-height="25.790009" target-width="32.690002" target-x="401.56" target-y="500.9"></path><path d="M 447.94 418.09 L 434.30 413.91 C 433.74 413.73 433.42 413.14 433.60 412.57 L 433.60 412.57 C 433.77 412.01 434.37 411.69 434.93 411.86 L 448.56 416.05 C 449.13 416.22 449.44 416.81 449.27 417.38 L 449.27 417.38 C 449.10 417.94 448.50 418.26 447.94 418.09 Z" fill="url(#SVGID_37_)" fill-rule="nonzero" group-id="1,20,51" node-id="1109" stroke="none" target-height="6.5700073" target-width="16.019989" target-x="433.42" target-y="411.69"></path><path d="M 447.94 418.09 L 434.30 413.91 C 433.74 413.73 433.42 413.14 433.60 412.57 L 433.60 412.57 C 433.77 412.01 434.37 411.69 434.93 411.86 L 448.56 416.05 C 449.13 416.22 449.44 416.81 449.27 417.38 L 449.27 417.38 C 449.10 417.94 448.50 418.26 447.94 418.09 Z" fill="#f3f8ff" fill-rule="nonzero" group-id="1,20,51,63,68" node-id="1115" stroke="none" target-height="6.5700073" target-width="16.019989" target-x="433.42" target-y="411.69"></path><g clip-path="url(#SVGID_39_)" group-id="1,20,51,63,69" node-id="1118"><path d="M 448.43 417.76 L 434.80 413.58 C 434.23 413.40 433.92 412.81 434.09 412.24 L 434.09 412.24 C 434.26 411.68 434.86 411.36 435.42 411.54 L 449.05 415.72 C 449.62 415.89 449.94 416.49 449.76 417.05 L 449.76 417.05 C 449.59 417.61 448.99 417.93 448.43 417.76 Z" fill="url(#SVGID_40_)" fill-rule="nonzero" group-id="1,20,51,63,69" node-id="1120" stroke="none" target-height="6.5700073" target-width="16.019989" target-x="433.92" target-y="411.36"></path></g><path d="M 449.74 415.29 L 436.11 411.11 C 435.55 410.94 435.23 410.34 435.40 409.78 L 435.40 409.78 C 435.58 409.21 436.17 408.90 436.74 409.07 L 450.37 413.25 C 450.93 413.43 451.25 414.02 451.08 414.59 L 451.08 414.59 C 450.90 415.15 450.31 415.47 449.74 415.29 Z" fill="url(#SVGID_41_)" fill-rule="nonzero" group-id="1,20,52" node-id="1127" stroke="none" target-height="6.5700073" target-width="16.019989" target-x="435.23" target-y="408.9"></path><path d="M 449.74 415.29 L 436.11 411.11 C 435.55 410.94 435.23 410.34 435.40 409.78 L 435.40 409.78 C 435.58 409.21 436.17 408.90 436.74 409.07 L 450.37 413.25 C 450.93 413.43 451.25 414.02 451.08 414.59 L 451.08 414.59 C 450.90 415.15 450.31 415.47 449.74 415.29 Z" fill="#f3f8ff" fill-rule="nonzero" group-id="1,20,52,64,70" node-id="1133" stroke="none" target-height="6.5700073" target-width="16.019989" target-x="435.23" target-y="408.9"></path><g clip-path="url(#SVGID_43_)" group-id="1,20,52,64,71" node-id="1136"><path d="M 450.24 414.96 L 436.60 410.78 C 436.04 410.61 435.72 410.01 435.90 409.45 L 435.90 409.45 C 436.07 408.89 436.67 408.57 437.23 408.74 L 450.86 412.92 C 451.43 413.10 451.74 413.69 451.57 414.26 L 451.57 414.26 C 451.40 414.82 450.80 415.14 450.24 414.96 Z" fill="url(#SVGID_44_)" fill-rule="nonzero" group-id="1,20,52,64,71" node-id="1138" stroke="none" target-height="6.5700073" target-width="16.019989" target-x="435.72" target-y="408.57"></path></g><path d="M 451.39 412.50 L 437.75 408.32 C 437.19 408.15 436.87 407.55 437.05 406.99 L 437.05 406.99 C 437.22 406.42 437.82 406.11 438.38 406.28 L 452.01 410.46 C 452.58 410.63 452.89 411.23 452.72 411.79 L 452.72 411.79 C 452.55 412.36 451.95 412.67 451.39 412.50 Z" fill="url(#SVGID_45_)" fill-rule="nonzero" group-id="1,20,53" node-id="1145" stroke="none" target-height="6.560028" target-width="16.02002" target-x="436.87" target-y="406.11"></path><path d="M 451.39 412.50 L 437.75 408.32 C 437.19 408.15 436.87 407.55 437.05 406.99 L 437.05 406.99 C 437.22 406.42 437.82 406.11 438.38 406.28 L 452.01 410.46 C 452.58 410.63 452.89 411.23 452.72 411.79 L 452.72 411.79 C 452.55 412.36 451.95 412.67 451.39 412.50 Z" fill="#f3f8ff" fill-rule="nonzero" group-id="1,20,53,65,72" node-id="1151" stroke="none" target-height="6.560028" target-width="16.02002" target-x="436.87" target-y="406.11"></path><g clip-path="url(#SVGID_47_)" group-id="1,20,53,65,73" node-id="1154"><path d="M 451.88 412.17 L 438.25 407.99 C 437.68 407.82 437.37 407.22 437.54 406.66 L 437.54 406.66 C 437.71 406.09 438.31 405.78 438.87 405.95 L 452.50 410.13 C 453.07 410.30 453.39 410.90 453.21 411.46 L 453.21 411.46 C 453.04 412.03 452.44 412.35 451.88 412.17 Z" fill="url(#SVGID_48_)" fill-rule="nonzero" group-id="1,20,53,65,73" node-id="1156" stroke="none" target-height="6.5700073" target-width="16.02002" target-x="437.37" target-y="405.78"></path></g></g></g><g node-id="1283"><g clip-path="url(#SVGID_2_)" group-id="1,21" node-id="1162"><path d="M 945.04 170.09 C 945.04 256.55 874.95 326.65 788.49 326.65 C 702.03 326.65 631.93 256.55 631.93 170.09 C 631.93 83.63 702.03 13.54 788.49 13.54 C 874.95 13.54 945.04 83.63 945.04 170.09 Z" fill="url(#SVGID_49_)" fill-rule="nonzero" group-id="1,21" node-id="1164" stroke="none" target-height="313.11" target-width="313.11" target-x="631.93" target-y="13.54"></path><path d="M 788.49 301.22 C 770.79 301.22 753.61 297.75 737.45 290.91 C 721.83 284.31 707.81 274.85 695.77 262.81 C 683.73 250.77 674.27 236.75 667.67 221.13 C 660.83 204.97 657.36 187.79 657.36 170.09 C 657.36 152.39 660.83 135.22 667.67 119.05 C 674.27 103.44 683.73 89.42 695.77 77.37 C 707.81 65.33 721.83 55.88 737.45 49.27 C 753.61 42.43 770.79 38.97 788.49 38.97 C 806.19 38.97 823.36 42.43 839.53 49.27 C 855.14 55.88 869.16 65.33 881.21 77.37 C 893.25 89.42 902.70 103.44 909.31 119.05 C 916.15 135.22 919.61 152.39 919.61 170.09 C 919.61 187.79 916.15 204.97 909.31 221.13 C 902.70 236.75 893.25 250.77 881.21 262.81 C 869.16 274.85 855.14 284.31 839.53 290.91 C 823.36 297.75 806.19 301.22 788.49 301.22 Z M 788.49 40.49 C 770.99 40.49 754.02 43.91 738.04 50.67 C 722.61 57.20 708.74 66.54 696.84 78.45 C 684.94 90.35 675.59 104.21 669.07 119.64 C 662.31 135.62 658.88 152.60 658.88 170.09 C 658.88 187.59 662.31 204.56 669.07 220.54 C 675.59 235.97 684.94 249.84 696.84 261.74 C 708.74 273.64 722.61 282.99 738.04 289.51 C 754.02 296.27 770.99 299.70 788.49 299.70 C 805.98 299.70 822.96 296.27 838.94 289.51 C 854.37 282.99 868.23 273.64 880.13 261.74 C 892.04 249.84 901.38 235.97 907.91 220.54 C 914.67 204.56 918.09 187.59 918.09 170.09 C 918.09 152.60 914.67 135.62 907.91 119.64 C 901.38 104.21 892.04 90.35 880.13 78.45 C 868.23 66.54 854.37 57.20 838.94 50.67 C 822.96 43.91 805.98 40.49 788.49 40.49 Z" fill="#ffcf00" fill-rule="nonzero" group-id="1,21,54" node-id="1168" stroke="none" target-height="262.25" target-width="262.25" target-x="657.36" target-y="38.97"></path><path d="M 788.49 288.88 C 772.45 288.88 756.89 285.74 742.25 279.55 C 728.10 273.56 715.40 265.00 704.49 254.09 C 693.58 243.18 685.02 230.48 679.03 216.33 C 672.84 201.69 669.70 186.13 669.70 170.09 C 669.70 154.06 672.84 138.50 679.03 123.85 C 685.01 109.71 693.58 97.00 704.49 86.09 C 715.40 75.19 728.10 66.62 742.25 60.64 C 756.89 54.44 772.45 51.30 788.49 51.30 C 804.52 51.30 820.08 54.44 834.73 60.64 C 848.87 66.62 861.58 75.19 872.49 86.09 C 883.39 97.00 891.96 109.71 897.94 123.85 C 904.14 138.50 907.28 154.06 907.28 170.09 C 907.28 186.13 904.14 201.69 897.94 216.33 C 891.96 230.48 883.39 243.18 872.49 254.09 C 861.58 265.00 848.87 273.56 834.73 279.55 C 820.08 285.74 804.52 288.88 788.49 288.88 Z M 788.49 56.99 C 773.22 56.99 758.41 59.98 744.47 65.88 C 731.00 71.58 718.90 79.73 708.51 90.12 C 698.13 100.51 689.97 112.60 684.28 126.07 C 678.38 140.01 675.39 154.82 675.39 170.09 C 675.39 185.36 678.38 200.17 684.28 214.12 C 689.97 227.58 698.13 239.68 708.51 250.06 C 718.90 260.45 731.00 268.61 744.47 274.30 C 758.41 280.20 773.22 283.19 788.49 283.19 C 803.76 283.19 818.57 280.20 832.51 274.30 C 845.98 268.61 858.07 260.45 868.46 250.06 C 878.85 239.68 887.00 227.58 892.70 214.12 C 898.60 200.17 901.59 185.36 901.59 170.09 C 901.59 154.82 898.60 140.01 892.70 126.07 C 887.00 112.60 878.85 100.51 868.46 90.12 C 858.07 79.73 845.98 71.58 832.51 65.88 C 818.57 59.98 803.76 56.99 788.49 56.99 Z" fill="#ffcf00" fill-opacity="0.99" fill-rule="nonzero" group-id="1,21,55" node-id="1173" stroke="none" target-height="237.58" target-width="237.58002" target-x="669.7" target-y="51.3"></path><path d="M 892.56 170.09 C 892.56 227.57 845.96 274.17 788.49 274.17 C 731.01 274.17 684.41 227.57 684.41 170.09 C 684.41 112.62 731.01 66.02 788.49 66.02 C 845.96 66.02 892.56 112.62 892.56 170.09 Z" fill="url(#SVGID_50_)" fill-rule="nonzero" group-id="1,21" node-id="1176" stroke="none" target-height="208.15002" target-width="208.15002" target-x="684.41" target-y="66.02"></path><path d="M 788.49 66.02 C 772.94 66.02 758.19 69.44 744.94 75.55 C 748.85 96.62 756.45 126.25 769.13 133.54 C 789.35 145.15 842.24 153.75 844.39 175.68 C 846.22 194.32 857.99 223.52 871.25 233.19 C 884.62 215.68 892.56 193.82 892.56 170.09 C 892.56 112.61 845.97 66.02 788.49 66.02 Z" fill="#fdf879" fill-rule="nonzero" group-id="1,21" node-id="1178" stroke="none" target-height="167.17001" target-width="147.62" target-x="744.94" target-y="66.02"></path><path d="M 788.49 192.03 C 775.57 184.69 715.02 174.81 684.88 160.30 C 684.58 163.53 684.41 166.79 684.41 170.09 C 684.41 227.57 731.01 274.17 788.49 274.17 C 787.63 253.95 804.40 201.06 788.49 192.03 Z" fill="#ffb109" fill-rule="nonzero" group-id="1,21" node-id="1180" stroke="none" target-height="113.87001" target-width="119.99005" target-x="684.41" target-y="160.3"></path><path d="M 694.78 215.42 C 706.42 239.45 727.04 258.32 752.28 267.69 C 752.79 254.69 752.96 225.96 745.05 217.40 C 737.70 209.44 710.08 212.81 694.78 215.42 Z" fill="#ffea73" fill-rule="nonzero" group-id="1,21" node-id="1182" stroke="none" target-height="58.25" target-width="58.179993" target-x="694.78" target-y="209.44"></path><path d="M 711.87 240.52 C 730.89 261.20 758.17 274.17 788.49 274.17 C 845.96 274.17 892.56 227.57 892.56 170.09 C 892.56 164.33 892.08 158.67 891.18 153.16 C 875.64 178.72 869.34 204.93 825.90 226.86 C 782.47 248.79 743.75 240.82 711.87 240.52 Z" fill="#e5690a" fill-opacity="0.3" fill-rule="nonzero" group-id="1,21,56" node-id="1186" stroke="none" target-height="121.01001" target-width="180.69" target-x="711.87" target-y="153.16"></path></g></g><g node-id="1284"><g clip-path="url(#SVGID_2_)" group-id="1,22" node-id="1190"><path d="M 323.95 136.88 C 323.95 142.86 319.11 147.70 313.13 147.70 C 307.16 147.70 302.32 142.86 302.32 136.88 C 302.32 130.91 307.16 126.07 313.13 126.07 C 319.11 126.07 323.95 130.91 323.95 136.88 Z" fill="#312287" fill-rule="nonzero" group-id="1,22" node-id="1192" stroke="none" target-height="21.629997" target-width="21.630005" target-x="302.32" target-y="126.07"></path><path d="M 327.75 143.15 C 327.75 147.76 324.01 151.50 319.40 151.50 C 314.79 151.50 311.05 147.76 311.05 143.15 C 311.05 138.54 314.79 134.80 319.40 134.80 C 324.01 134.80 327.75 138.54 327.75 143.15 Z" fill="url(#SVGID_51_)" fill-rule="nonzero" group-id="1,22" node-id="1194" stroke="none" target-height="16.699997" target-width="16.700012" target-x="311.05" target-y="134.8"></path><path d="M 323.95 143.15 C 323.95 145.66 321.91 147.70 319.40 147.70 C 316.88 147.70 314.84 145.66 314.84 143.15 C 314.84 140.63 316.88 138.59 319.40 138.59 C 321.91 138.59 323.95 140.63 323.95 143.15 Z" fill="#d6d3fe" fill-rule="nonzero" group-id="1,22" node-id="1196" stroke="none" target-height="9.110001" target-width="9.110016" target-x="314.84" target-y="138.59"></path></g></g><g node-id="1285"><g clip-path="url(#SVGID_2_)" group-id="1,23" node-id="1199"><path d="M 327.75 143.15 C 327.75 147.76 324.01 151.50 319.40 151.50 C 314.79 151.50 311.05 147.76 311.05 143.15 C 311.05 138.54 314.79 134.80 319.40 134.80 C 324.01 134.80 327.75 138.54 327.75 143.15 Z" fill="url(#SVGID_52_)" fill-rule="nonzero" group-id="1,23" node-id="1201" stroke="none" target-height="16.699997" target-width="16.700012" target-x="311.05" target-y="134.8"></path><path d="M 323.95 143.15 C 323.95 145.66 321.91 147.70 319.40 147.70 C 316.88 147.70 314.84 145.66 314.84 143.15 C 314.84 140.63 316.88 138.59 319.40 138.59 C 321.91 138.59 323.95 140.63 323.95 143.15 Z" fill="#d6d3fe" fill-rule="nonzero" group-id="1,23" node-id="1203" stroke="none" target-height="9.110001" target-width="9.110016" target-x="314.84" target-y="138.59"></path></g></g><g node-id="1286"><g clip-path="url(#SVGID_2_)" group-id="1,24" node-id="1206"><path d="M 782.23 581.68 C 782.23 583.99 780.36 585.86 778.05 585.86 C 775.74 585.86 773.88 583.99 773.88 581.68 C 773.88 579.38 775.74 577.51 778.05 577.51 C 780.36 577.51 782.23 579.38 782.23 581.68 Z" fill="url(#SVGID_53_)" fill-rule="nonzero" group-id="1,24" node-id="1208" stroke="none" target-height="8.349976" target-width="8.349976" target-x="773.88" target-y="577.51"></path><path d="M 780.33 581.68 C 780.33 582.94 779.31 583.96 778.05 583.96 C 776.79 583.96 775.77 582.94 775.77 581.68 C 775.77 580.43 776.79 579.41 778.05 579.41 C 779.31 579.41 780.33 580.43 780.33 581.68 Z" fill="#d6d3fe" fill-rule="nonzero" group-id="1,24" node-id="1210" stroke="none" target-height="4.550049" target-width="4.5599976" target-x="775.77" target-y="579.41"></path></g></g><g node-id="1287"><g clip-path="url(#SVGID_2_)" group-id="1,25" node-id="1213"><path d="M 753.19 379.21 C 753.19 381.52 751.32 383.38 749.02 383.38 C 746.71 383.38 744.84 381.52 744.84 379.21 C 744.84 376.90 746.71 375.04 749.02 375.04 C 751.32 375.04 753.19 376.90 753.19 379.21 Z" fill="url(#SVGID_54_)" fill-rule="nonzero" group-id="1,25" node-id="1215" stroke="none" target-height="8.339996" target-width="8.349976" target-x="744.84" target-y="375.04"></path><path d="M 640.28 212.03 C 640.28 214.34 638.41 216.21 636.11 216.21 C 633.80 216.21 631.93 214.34 631.93 212.03 C 631.93 209.72 633.80 207.85 636.11 207.85 C 638.41 207.85 640.28 209.72 640.28 212.03 Z" fill="url(#SVGID_55_)" fill-rule="nonzero" group-id="1,25" node-id="1217" stroke="none" target-height="8.360001" target-width="8.350037" target-x="631.93" target-y="207.85"></path><path d="M 545.78 144.85 C 545.78 147.16 543.91 149.03 541.61 149.03 C 539.30 149.03 537.43 147.16 537.43 144.85 C 537.43 142.55 539.30 140.68 541.61 140.68 C 543.91 140.68 545.78 142.55 545.78 144.85 Z" fill="url(#SVGID_56_)" fill-rule="nonzero" group-id="1,25" node-id="1219" stroke="none" target-height="8.350006" target-width="8.350037" target-x="537.43" target-y="140.68"></path><path d="M 436.10 114.68 C 436.10 116.99 434.23 118.86 431.93 118.86 C 429.62 118.86 427.75 116.99 427.75 114.68 C 427.75 112.38 429.62 110.51 431.93 110.51 C 434.23 110.51 436.10 112.38 436.10 114.68 Z" fill="url(#SVGID_57_)" fill-rule="nonzero" group-id="1,25" node-id="1221" stroke="none" target-height="8.349998" target-width="8.350006" target-x="427.75" target-y="110.51"></path><path d="M 314.08 194.76 C 314.08 197.07 312.21 198.94 309.91 198.94 C 307.60 198.94 305.73 197.07 305.73 194.76 C 305.73 192.46 307.60 190.59 309.91 190.59 C 312.21 190.59 314.08 192.46 314.08 194.76 Z" fill="url(#SVGID_58_)" fill-rule="nonzero" group-id="1,25" node-id="1223" stroke="none" target-height="8.350006" target-width="8.349976" target-x="305.73" target-y="190.59"></path><path d="M 427.75 366.88 C 427.75 369.18 425.88 371.05 423.58 371.05 C 421.27 371.05 419.40 369.18 419.40 366.88 C 419.40 364.57 421.27 362.70 423.58 362.70 C 425.88 362.70 427.75 364.57 427.75 366.88 Z" fill="url(#SVGID_59_)" fill-rule="nonzero" group-id="1,25" node-id="1225" stroke="none" target-height="8.349976" target-width="8.350006" target-x="419.4" target-y="362.7"></path><path d="M 188.27 456.06 C 188.27 458.37 186.40 460.24 184.10 460.24 C 181.79 460.24 179.92 458.37 179.92 456.06 C 179.92 453.76 181.79 451.89 184.10 451.89 C 186.40 451.89 188.27 453.76 188.27 456.06 Z" fill="url(#SVGID_60_)" fill-rule="nonzero" group-id="1,25" node-id="1227" stroke="none" target-height="8.349976" target-width="8.350006" target-x="179.92" target-y="451.89"></path><path d="M 423.58 677.13 C 423.58 679.44 421.71 681.31 419.40 681.31 C 417.10 681.31 415.23 679.44 415.23 677.13 C 415.23 674.83 417.10 672.96 419.40 672.96 C 421.71 672.96 423.58 674.83 423.58 677.13 Z" fill="url(#SVGID_61_)" fill-rule="nonzero" group-id="1,25" node-id="1229" stroke="none" target-height="8.349976" target-width="8.349976" target-x="415.23" target-y="672.96"></path><path d="M 677.86 554.55 C 677.86 556.85 675.99 558.72 673.68 558.72 C 671.38 558.72 669.51 556.85 669.51 554.55 C 669.51 552.24 671.38 550.37 673.68 550.37 C 675.99 550.37 677.86 552.24 677.86 554.55 Z" fill="url(#SVGID_62_)" fill-rule="nonzero" group-id="1,25" node-id="1231" stroke="none" target-height="8.349976" target-width="8.349976" target-x="669.51" target-y="550.37"></path><path d="M 814.11 546.20 C 814.11 548.51 812.24 550.38 809.93 550.38 C 807.62 550.38 805.75 548.51 805.75 546.20 C 805.75 543.89 807.62 542.02 809.93 542.02 C 812.24 542.02 814.11 543.89 814.11 546.20 Z" fill="url(#SVGID_63_)" fill-rule="nonzero" group-id="1,25" node-id="1233" stroke="none" target-height="8.359985" target-width="8.359985" target-x="805.75" target-y="542.02"></path><path d="M 615.80 444.11 C 615.80 446.41 613.93 448.28 611.63 448.28 C 609.32 448.28 607.45 446.41 607.45 444.11 C 607.45 441.80 609.32 439.93 611.63 439.93 C 613.93 439.93 615.80 441.80 615.80 444.11 Z" fill="url(#SVGID_64_)" fill-rule="nonzero" group-id="1,25" node-id="1235" stroke="none" target-height="8.350006" target-width="8.349976" target-x="607.45" target-y="439.93"></path><path d="M 601.76 329.49 C 601.76 331.80 599.89 333.67 597.59 333.67 C 595.28 333.67 593.41 331.80 593.41 329.49 C 593.41 327.19 595.28 325.32 597.59 325.32 C 599.89 325.32 601.76 327.19 601.76 329.49 Z" fill="url(#SVGID_65_)" fill-rule="nonzero" group-id="1,25" node-id="1237" stroke="none" target-height="8.350006" target-width="8.350037" target-x="593.41" target-y="325.32"></path></g></g><g clip-path="url(#SVGID_2_)" group-id="1,26" node-id="1240"><path d="M 749.17 522.34 L 756.94 542.20 C 757.74 544.25 760.23 545.02 762.05 543.78 L 838.96 491.17 C 838.96 491.17 843.33 487.94 841.62 485.10 C 839.91 482.25 834.79 485.10 834.79 485.10 L 820.90 485.68 C 818.20 485.80 815.58 486.68 813.37 488.23 L 764.96 522.10 L 757.22 516.15 C 755.97 515.19 754.22 515.21 753.00 516.20 L 750.21 518.44 C 749.05 519.38 748.63 520.96 749.17 522.34 Z" fill="#fefffd" fill-rule="nonzero" group-id="1,26" node-id="1242" stroke="none" target-height="62.77002" target-width="94.70001" target-x="748.63" target-y="482.25"></path><path d="M 773.60 520.95 C 774.32 520.95 775.03 520.74 775.65 520.30 L 806.16 498.72 C 807.00 498.13 807.54 497.20 807.65 496.19 C 807.76 495.17 807.42 494.16 806.74 493.40 L 806.44 493.08 L 805.50 493.74 L 805.89 494.17 C 806.36 494.68 806.59 495.38 806.51 496.07 C 806.44 496.76 806.07 497.38 805.50 497.79 L 775.00 519.37 C 773.92 520.13 772.42 519.88 771.64 518.83 L 770.96 517.90 L 770.02 518.55 L 770.73 519.50 C 771.42 520.45 772.50 520.95 773.60 520.95 Z" fill="#8d5e83" fill-rule="nonzero" group-id="1,26" node-id="1244" stroke="none" target-height="27.870026" target-width="37.73999" target-x="770.02" target-y="493.08"></path><path d="M 762.05 543.78 L 838.96 491.17 C 838.96 491.17 843.22 488.02 841.68 485.20 L 757.69 543.36 C 758.81 544.49 760.63 544.74 762.05 543.78 Z" fill="#c695c9" fill-rule="nonzero" group-id="1,26" node-id="1246" stroke="none" target-height="59.539978" target-width="85.52997" target-x="757.69" target-y="485.2"></path><path d="M 781.35 519.83 L 810.32 499.55 C 811.12 498.99 812.13 499.86 811.70 500.73 L 803.52 517.08 C 803.37 517.39 803.15 517.66 802.89 517.88 L 788.90 529.43 C 787.84 530.30 786.26 530.14 785.40 529.07 L 780.84 523.40 C 779.95 522.28 780.18 520.65 781.35 519.83 Z" fill="url(#SVGID_66_)" fill-rule="nonzero" group-id="1,26" node-id="1248" stroke="none" target-height="31.309998" target-width="32.179993" target-x="779.95" target-y="498.99"></path><path d="M 752.73 541.82 L 776.57 525.87 C 776.90 525.65 777.10 525.28 777.10 524.88 L 777.10 524.43 C 777.10 523.77 776.57 523.24 775.91 523.24 L 774.06 523.24 C 773.82 523.24 773.58 523.31 773.38 523.45 L 751.12 538.90 C 750.87 539.08 750.69 539.35 750.63 539.65 L 750.44 540.60 C 750.29 541.34 750.86 542.02 751.61 542.02 L 752.07 542.02 C 752.31 542.02 752.54 541.96 752.73 541.82 Z" fill="#c695c9" fill-rule="nonzero" group-id="1,26" node-id="1250" stroke="none" target-height="18.78003" target-width="26.809998" target-x="750.29" target-y="523.24"></path><path d="M 817.98 495.34 L 819.75 495.34 C 820.27 495.34 820.78 495.17 821.19 494.85 L 831.01 487.25 C 831.72 486.70 831.99 485.94 831.92 485.22 L 824.89 485.51 L 816.66 491.04 C 816.01 491.48 815.62 492.21 815.62 492.99 C 815.62 494.29 816.68 495.34 817.98 495.34 Z" fill="#945b89" fill-rule="nonzero" group-id="1,26" node-id="1252" stroke="none" target-height="10.119995" target-width="16.369995" target-x="815.62" target-y="485.22"></path><path d="M 817.78 488.05 L 824.33 494.60 L 823.52 495.41 L 816.97 488.86 Z" fill="#fefffd" fill-rule="nonzero" group-id="1,26,57" node-id="1256" stroke="none" target-height="7.360016" target-width="7.3600464" target-x="816.97" target-y="488.05"></path><path d="M 820.06 486.35 L 826.60 492.89 L 825.80 493.70 L 819.25 487.15 Z" fill="#fefffd" fill-rule="nonzero" group-id="1,26,58" node-id="1261" stroke="none" target-height="7.350006" target-width="7.3499756" target-x="819.25" target-y="486.35"></path></g></g></svg>