<svg xml:space="preserve" style="enable-background:new 0 0 256.5 253.117;" viewBox="0 0 256.5 253.117" height="253.117px" width="256.5px" y="0px" x="0px" xmlns:xlink="http://www.w3.org/1999/xlink" xmlns="http://www.w3.org/2000/svg" id="Layer_1" version="1.1">
<g id="Layer_1_1_">
	<path d="M255.493,133.805c0.784-23.658-11.392-44.725-30.128-56.411
		c0.714-22.071-10.018-43.911-30.112-56.421c-20.094-12.51-44.429-12.497-63.919-2.114C112.578,7.205,88.299,5.578,67.418,16.726
		S34.38,48.954,33.628,71.023C14.157,81.44,0.607,101.653-0.178,125.311c-0.786,23.657,11.392,44.725,30.129,56.412
		c-0.714,22.07,10.017,43.911,30.111,56.42c20.096,12.51,44.429,12.498,63.918,2.114c18.756,11.654,43.036,13.281,63.917,2.134
		c20.881-11.148,33.037-32.229,33.791-54.299C241.158,177.675,254.707,157.463,255.493,133.805z" style="fill:#EBD4FF;"></path>
	<g style="display:none;" id="Layer_3_2_">
		<g style="display:inline;">
			<g>
				<path d="M85.16,142.542c0-11.563-10.059-20.936-22.467-20.936c-0.194,0-0.385,0.009-0.576,0.014
					c-3.917-6.134-11.102-10.245-19.318-10.245c-12.409,0-22.469,9.372-22.469,20.936c0,0.149,0.009,0.297,0.012,0.446
					c-6.785,3.603-11.365,10.399-11.365,18.198c0,11.562,10.059,20.934,22.468,20.934c0.705,0,1.403-0.033,2.092-0.094
					c4.122,4.65,10.358,7.617,17.335,7.617c11.471,0,20.925-8.01,22.293-18.35C80.297,157.555,85.16,150.579,85.16,142.542z" style="fill:#D7F7E4;"></path>
				<path d="M50.872,180.912c-6.895,0-13.393-2.749-17.95-7.568c-0.499,0.03-0.993,0.045-1.477,0.045
					c-13.216,0-23.968-10.063-23.968-22.434c0-7.768,4.328-14.997,11.357-19.076c0.247-12.173,10.902-22.004,23.964-22.004
					c8.091,0,15.716,3.9,20.112,10.232c13.116,0.11,23.749,10.131,23.749,22.435c0,8.109-4.626,15.515-12.127,19.506
					C72.687,172.857,62.662,180.912,50.872,180.912z M34.159,170.234l0.501,0.565c4.006,4.52,9.916,7.112,16.212,7.112
					c10.575,0,19.52-7.328,20.806-17.046l0.105-0.796l0.72-0.354c6.882-3.385,11.157-9.966,11.157-17.175
					c0-10.717-9.406-19.436-20.967-19.436c-0.115,0-0.229,0.004-0.344,0.008l-1.041,0.027l-0.456-0.714
					c-3.763-5.892-10.68-9.552-18.054-9.552c-11.562,0-20.969,8.719-20.969,19.436l0.029,1.339l-0.814,0.433
					c-6.519,3.461-10.568,9.927-10.568,16.873c0,10.716,9.406,19.434,20.968,19.434c0.637,0,1.296-0.029,1.961-0.088L34.159,170.234
					z" style="fill:#CCCCDE;"></path>
			</g>
			<path d="M62.314,120.853c-0.193,0-0.384,0.009-0.575,0.014
				c-3.141-4.918-8.383-8.534-14.573-9.775c4.898,1.229,9.023,4.208,11.558,8.175c0.165-0.004,2.416,3.886,2.583,3.886
				c10.648,0,15.601,5.738,15.601,15.66c0,6.896-2.583,11.291-8.704,14.302c-1.173,8.875-9.287,15.748-19.129,15.748
				c-5.99,0-11.34-2.544-14.877-6.531c-0.591,0.05-1.189,0.076-1.794,0.076c-10.649,0-19.013-5.048-19.013-14.968
				c0-6.683,2.99-9.973,8.432-13.938c-0.145-0.855-0.75-8.421,1.267-10.437c4.792-4.793,6.963-8.909,11.25-11.038
				c-8.414,3.025-14.385,10.627-14.385,19.536c0,0.147,0.009,0.3,0.012,0.447c-6.787,3.604-11.366,10.396-11.366,18.195
				c0,11.562,10.059,20.938,22.468,20.938c0.707,0,1.403-0.035,2.093-0.098c4.121,4.648,10.356,7.617,17.336,7.617
				c11.469,0,20.924-8.012,22.291-18.354c7.133-3.507,11.997-10.479,11.997-18.521C84.783,130.227,74.724,120.853,62.314,120.853z" style="opacity:0.1;fill:#6E6E96;enable-background:new    ;"></path>
			<g>
				<path d="M30.336,153.865c0,0,11.635,2.277,11.635,13.662c0,0,3.132,19.342-8.976,33.026h27.96
					c-0.277-0.389-24.422-32.646,2.449-51.815C47.016,158.107,30.336,153.865,30.336,153.865z" style="fill:#EDE3DA;"></path>
				<path d="M60.955,202.054h-31.29l2.207-2.494c11.477-12.972,8.648-31.607,8.619-31.794l-0.019-0.238
					c0-9.079-8.398-11.683-10.144-12.124c-0.238-0.053-0.362-0.084-0.362-0.084l0.658-2.926c0,0,0.139,0.026,0.39,0.089
					c0.935,0.203,4.231,0.841,8.802,0.841c5.724,0,14.333-1.021,22.844-5.887l1.616,2.522c-6.626,4.728-10.562,10.701-11.7,17.755
					c-2.418,15.007,8.333,30.235,9.567,31.922l1.745,2.386L60.955,202.054z M36.13,199.054h21.998
					c-3.445-5.398-10.645-18.595-8.514-31.817c0.805-4.994,2.848-9.49,6.098-13.439c-6.069,2.011-11.71,2.526-15.896,2.526
					c-0.463,0-0.915-0.006-1.352-0.018c2.655,2.276,4.974,5.786,5.007,11.104C43.731,169.146,45.9,185.741,36.13,199.054z" style="fill:#CCCCDE;"></path>
			</g>
			<g>
				<path d="M37.703,131.025" style="fill:#D57E58;"></path>
			</g>
			<path d="M56.43,153.833c0,0-17.654,22.793-4.085,46.722h8.611
				C60.955,200.555,43.04,175.518,56.43,153.833z" style="opacity:0.11;fill:#6E6E96;enable-background:new    ;"></path>
		</g>
		<g style="display:inline;">
			<g>
				<path d="M255,141.26c0-10.828-9.42-19.604-21.04-19.604c-0.183,0-0.36,0.008-0.539,0.013
					c-3.669-5.744-10.396-9.595-18.091-9.595c-11.62,0-21.041,8.777-21.041,19.604c0,0.141,0.009,0.279,0.012,0.418
					c-6.354,3.375-10.644,9.739-10.644,17.043c0,10.825,9.421,19.604,21.04,19.604c0.66,0,1.312-0.032,1.96-0.089
					c3.858,4.354,9.698,7.134,16.233,7.134c10.736,0,19.596-7.499,20.875-17.185C250.445,155.316,255,148.786,255,141.26z" style="fill:#D7F7E4;"></path>
				<path d="M222.891,177.288c-6.467,0-12.563-2.573-16.848-7.085c-0.458,0.027-0.902,0.04-1.346,0.04
					c-12.429,0-22.54-9.468-22.54-21.104c0-7.289,4.053-14.077,10.637-17.92c0.262-11.426,10.271-20.646,22.536-20.646
					c7.59,0,14.745,3.652,18.885,9.583c12.312,0.128,22.285,9.545,22.285,21.103c0,7.612-4.335,14.567-11.367,18.328
					C243.377,169.733,233.962,177.288,222.891,177.288z M207.279,167.094l0.501,0.565c3.733,4.213,9.241,6.629,15.11,6.629
					c9.857,0,18.192-6.827,19.388-15.881l0.105-0.795l0.72-0.354c6.413-3.156,10.396-9.286,10.396-15.998
					c0-9.982-8.766-18.104-19.54-18.104c-0.117,0-0.231,0.004-0.346,0.007l-1.001,0.028l-0.456-0.715
					c-3.508-5.491-9.955-8.902-16.827-8.902c-10.775,0-19.541,8.122-19.541,18.104l0.031,1.31l-0.815,0.433
					c-6.074,3.227-9.848,9.25-9.848,15.719c0,9.982,8.766,18.104,19.54,18.104c0.591,0,1.189-0.027,1.829-0.083L207.279,167.094z" style="fill:#CCCCDE;"></path>
			</g>
			<path d="M233.605,120.949c-0.186,0-0.358,0.008-0.539,0.012
				c-2.94-4.606-7.854-7.992-13.646-9.154c4.586,1.15,8.449,3.94,10.822,7.655c0.154-0.004,2.263,3.639,2.419,3.639
				c9.971,0,14.608,5.374,14.608,14.665c0,6.459-2.42,10.573-8.148,13.396c-1.1,8.311-8.698,14.742-17.914,14.742
				c-5.607,0-10.619-2.381-13.934-6.117c-0.559,0.047-1.112,0.072-1.684,0.072c-9.975,0-17.806-4.729-17.806-14.017
				c0-6.259,2.8-9.341,7.896-13.057c-0.139-0.808-0.701-7.885,1.188-9.772c4.483-4.488,6.521-8.343,10.532-10.337
				c-7.879,2.833-13.471,9.952-13.471,18.292c0,0.139,0.006,0.274,0.012,0.418c-6.354,3.373-10.646,9.735-10.646,17.041
				c0,10.823,9.421,19.604,21.041,19.604c0.661,0,1.313-0.032,1.959-0.091c3.859,4.355,9.699,7.136,16.234,7.136
				c10.739,0,19.594-7.5,20.875-17.188c6.68-3.285,11.231-9.812,11.231-17.342C254.646,129.727,245.227,120.949,233.605,120.949z" style="opacity:0.1;fill:#6E6E96;enable-background:new    ;"></path>
			<g>
				<path d="M203.66,151.861c0,0,10.896,2.133,10.896,12.797c0,0,2.934,18.109-8.406,30.927h26.184
					c-0.26-0.358-22.87-30.565,2.294-48.521C219.279,155.836,203.66,151.861,203.66,151.861z" style="fill:#EDE3DA;"></path>
				<path d="M232.334,197.085H202.82l2.207-2.494c10.744-12.145,8.077-29.519,8.049-29.692l-0.02-0.24
					c0-8.432-7.802-10.853-9.426-11.264c-0.225-0.05-0.341-0.08-0.341-0.08l0.658-2.925c0,0,0.132,0.024,0.369,0.084
					c0.876,0.19,3.955,0.786,8.226,0.786c5.348,0,13.39-0.954,21.341-5.498l1.615,2.523c-6.195,4.421-9.87,10.006-10.924,16.602
					c-2.247,14.071,7.8,28.223,8.952,29.79l1.758,2.389L232.334,197.085z M209.273,194.085h20.232
					c-3.271-5.141-9.861-17.346-7.893-29.672c0.735-4.605,2.589-8.76,5.534-12.422c-5.576,1.803-10.748,2.269-14.604,2.269
					c-0.344,0-0.681-0.004-1.009-0.011c2.417,2.149,4.489,5.412,4.522,10.291C216.305,166.203,218.305,181.631,209.273,194.085z" style="fill:#CCCCDE;"></path>
			</g>
			<g>
				<path d="M210.561,130.477" style="fill:#D57E58;"></path>
			</g>
			<path d="M228.096,151.833c0,0-16.531,21.345-3.824,43.752h8.063
				C232.333,195.585,215.557,172.139,228.096,151.833z" style="opacity:0.11;fill:#6E6E96;enable-background:new    ;"></path>
		</g>
		<g style="display:inline;">
			<g>
				<path d="M218.298,143.02c0-16.622-14.461-30.095-32.299-30.095c-0.278,0-0.554,0.012-0.828,0.019
					c-5.632-8.817-15.959-14.729-27.771-14.729c-17.838,0-32.301,13.475-32.301,30.096c0,0.215,0.014,0.429,0.018,0.646
					c-9.755,5.182-16.339,14.945-16.339,26.156c0,16.621,14.462,30.098,32.3,30.098c1.014,0,2.018-0.05,3.008-0.139
					c5.926,6.688,14.889,10.951,24.921,10.951c16.489,0,30.081-11.515,32.048-26.379
					C211.307,164.602,218.298,154.572,218.298,143.02z" style="fill:#D7F7E4;"></path>
				<path d="M169.007,197.523c-9.839,0-19.102-3.963-25.537-10.897c-0.812,0.057-1.614,0.085-2.392,0.085
					c-18.638,0-33.8-14.175-33.8-31.598c0-11.043,6.23-21.32,16.322-27.035c0.134-17.315,15.246-31.363,33.8-31.363
					c11.535,0,22.398,5.615,28.566,14.71c0.011,0,0.021,0,0.032,0c18.637,0,33.799,14.173,33.799,31.595
					c0,11.516-6.635,22.026-17.371,27.612C199.969,186.018,185.751,197.523,169.007,197.523z M144.706,183.511l0.503,0.566
					c5.881,6.639,14.556,10.446,23.798,10.446c15.531,0,28.669-10.78,30.561-25.075l0.105-0.796l0.72-0.354
					c10.119-4.978,16.405-14.664,16.405-25.279c0-15.768-13.816-28.595-30.799-28.595c-0.179,0-0.355,0.006-0.532,0.011
					l-1.104,0.028l-0.455-0.713c-5.531-8.658-15.688-14.037-26.507-14.037c-16.983,0-30.801,12.828-30.801,28.596
					c0,0.108,0.004,0.217,0.009,0.325l0.028,1.213l-0.815,0.434c-9.587,5.092-15.543,14.606-15.543,24.831
					c0,15.769,13.817,28.598,30.8,28.598c0.926,0,1.893-0.045,2.874-0.133L144.706,183.511z" style="fill:#CCCCDE;"></path>
			</g>
			<path d="M185.456,111.841c-0.276,0-0.552,0.012-0.827,0.019
				c-4.516-7.071-12.051-12.269-20.949-14.052c7.041,1.766,12.971,6.049,16.614,11.751c0.237-0.006,3.474,5.586,3.713,5.586
				c15.308,0,22.429,8.248,22.429,22.511c0,9.914-3.715,16.231-12.513,20.562c-1.687,12.754-13.353,22.635-27.5,22.635
				c-8.61,0-16.302-3.655-21.387-9.396c-0.851,0.071-1.71,0.114-2.58,0.114c-15.31,0-27.332-7.254-27.332-21.516
				c0-9.604,4.298-14.337,12.12-20.039c-0.209-1.234-1.077-12.104,1.82-15.002c6.89-6.89,10.011-12.808,16.174-15.868
				c-12.096,4.349-20.679,15.277-20.679,28.08c0,0.215,0.011,0.429,0.017,0.646c-9.756,5.178-16.34,14.947-16.34,26.156
				c0,16.621,14.461,30.097,32.3,30.097c1.017,0,2.017-0.049,3.008-0.136c5.925,6.688,14.89,10.949,24.922,10.949
				c16.487,0,30.078-11.517,32.046-26.379c10.254-5.043,17.244-15.07,17.244-26.623
				C217.756,125.314,203.295,111.841,185.456,111.841z" style="opacity:0.1;fill:#6E6E96;enable-background:new    ;"></path>
			<g>
				<path d="M139.484,159.296c0,0,16.727,3.272,16.727,19.644c0,0,4.504,27.808-12.904,47.479h40.195
					c-0.398-0.556-35.107-46.922,3.521-74.483C163.464,165.396,139.484,159.296,139.484,159.296z" style="fill:#EDE3DA;"></path>
				<path d="M183.502,227.919h-43.525l2.207-2.494c16.743-18.921,12.591-45.975,12.547-46.245l-0.02-0.24
					c0-13.557-12.515-17.422-15.086-18.071c-0.336-0.074-0.511-0.118-0.511-0.118l0.658-2.926c0,0,0.192,0.037,0.538,0.123
					c1.35,0.295,6.158,1.228,12.813,1.228c8.306,0,20.799-1.481,33.155-8.542l1.615,2.523c-9.681,6.907-15.431,15.647-17.09,25.977
					c-3.512,21.865,12.087,43.917,13.878,46.359l1.749,2.387L183.502,227.919z M146.496,224.919h34.146
					c-4.573-6.926-15.963-26.566-12.799-46.262c1.264-7.868,4.702-14.865,10.257-20.899c-9.522,3.547-18.479,4.417-24.976,4.417
					c-1.404,0-2.727-0.039-3.958-0.104c4.314,3.1,8.506,8.287,8.545,16.75C158.048,181.028,161.4,205.692,146.496,224.919z" style="fill:#CCCCDE;"></path>
			</g>
			<g>
				<path d="M150.077,126.465" style="fill:#D57E58;"></path>
			</g>
			<path d="M176.997,159.251c0,0-25.378,32.767-5.873,67.164h12.378
				C183.502,226.415,157.748,190.423,176.997,159.251z" style="opacity:0.11;fill:#6E6E96;enable-background:new    ;"></path>
		</g>
		<g style="display:inline;">
			<g>
				<path d="M146.461,144.131c0-13.645-11.873-24.707-26.517-24.707c-0.229,0-0.454,0.01-0.68,0.016
					c-4.624-7.239-13.102-12.092-22.8-12.092c-14.644,0-26.518,11.063-26.518,24.707c0,0.178,0.012,0.354,0.015,0.529
					c-8.01,4.251-13.414,12.271-13.414,21.477c0,13.646,11.872,24.707,26.518,24.707c0.832,0,1.655-0.041,2.469-0.104
					c4.864,5.483,12.224,8.983,20.46,8.983c13.537,0,24.695-9.45,26.309-21.651C140.721,161.85,146.461,153.617,146.461,144.131z" style="fill:#D7F7E4;"></path>
				<path d="M105.994,189.146c-8.109,0-15.748-3.248-21.08-8.938c-0.654,0.039-1.265,0.059-1.85,0.059
					c-15.449,0-28.018-11.757-28.018-26.207c0-9.119,5.111-17.604,13.401-22.354c0.2-14.291,12.691-25.858,28.016-25.858
					c9.509,0,18.468,4.606,23.595,12.076c15.396,0.059,27.902,11.793,27.902,26.207c0,9.51-5.454,18.196-14.288,22.85
					C131.576,179.673,119.825,189.146,105.994,189.146z M86.161,177.109l0.495,0.559c4.78,5.388,11.828,8.479,19.338,8.479
					c12.617,0,23.288-8.748,24.821-20.348l0.105-0.795l0.719-0.354c8.217-4.046,13.321-11.908,13.321-20.519
					c0-12.797-11.223-23.207-25.017-23.207c-0.145,0-0.287,0.005-0.429,0.009l-1.059,0.028L118,120.248
					c-4.492-7.031-12.744-11.399-21.536-11.399c-13.795,0-25.018,10.411-25.018,23.207l0.03,1.423l-0.812,0.432
					c-7.783,4.13-12.617,11.852-12.617,20.151c0,12.797,11.223,23.207,25.018,23.207c0.721,0,1.49-0.032,2.353-0.1L86.161,177.109z" style="fill:#CCCCDE;"></path>
			</g>
			<path d="M119.498,118.535c-0.228,0-0.452,0.009-0.679,0.015
				c-3.707-5.805-9.894-10.072-17.199-11.537c5.78,1.45,10.648,4.966,13.641,9.647c0.194-0.005,2.851,4.586,3.048,4.586
				c12.567,0,18.414,6.771,18.414,18.48c0,8.139-3.05,13.325-10.271,16.881c-1.384,10.472-10.961,18.584-22.576,18.584
				c-7.069,0-13.384-3.004-17.559-7.715c-0.698,0.061-1.404,0.096-2.118,0.096c-12.568,0-22.438-5.957-22.438-17.664
				c0-7.885,3.528-11.771,9.949-16.452c-0.171-1.015-0.884-9.938,1.496-12.316c5.655-5.657,8.218-10.515,13.277-13.028
				c-9.93,3.571-16.978,12.542-16.978,23.053c0,0.177,0.01,0.353,0.015,0.528c-8.011,4.25-13.415,12.271-13.415,21.477
				c0,13.645,11.873,24.706,26.518,24.706c0.834,0,1.655-0.04,2.469-0.108c4.864,5.488,12.224,8.988,20.461,8.988
				c13.536,0,24.693-9.451,26.311-21.656c8.418-4.141,14.158-12.371,14.158-21.854C146.016,129.598,134.143,118.535,119.498,118.535
				z" style="opacity:0.1;fill:#6E6E96;enable-background:new    ;"></path>
			<g>
				<path d="M81.757,157.494c0,0,13.731,2.688,13.731,16.128c0,0,3.697,22.823-10.595,38.978h33
					c-0.328-0.455-28.824-38.521,2.89-61.151C101.443,162.502,81.757,157.494,81.757,157.494z" style="fill:#EDE3DA;"></path>
				<path d="M117.893,214.1h-36.33l2.207-2.494c13.636-15.412,10.273-37.523,10.237-37.744l-0.019-0.239
					c0-10.926-10.094-14.049-12.179-14.576c-0.278-0.062-0.422-0.098-0.422-0.098l0.658-2.926c0,0,0.161,0.03,0.451,0.103
					c1.105,0.241,5.025,1.001,10.455,1.001c6.786,0,16.995-1.211,27.088-6.98l1.615,2.523c-7.892,5.632-12.577,12.753-13.924,21.167
					c-2.861,17.866,9.887,35.854,11.351,37.847l1.753,2.388L117.893,214.1z M88.055,211.1h26.991
					c-3.932-6.047-12.823-21.844-10.278-37.738c0.989-6.177,3.596-11.703,7.777-16.517c-7.478,2.623-14.465,3.281-19.595,3.281
					c-0.833,0-1.63-0.017-2.39-0.046c3.334,2.627,6.39,6.832,6.426,13.424C97.28,175.44,99.933,195.348,88.055,211.1z" style="fill:#CCCCDE;"></path>
			</g>
			<g>
				<path d="M90.453,130.541" style="fill:#D57E58;"></path>
			</g>
			<path d="M112.553,157.458c0,0-20.835,26.899-4.821,55.142h10.162
				C117.894,212.6,96.75,183.049,112.553,157.458z" style="opacity:0.11;fill:#6E6E96;enable-background:new    ;"></path>
		</g>
		<g style="display:inline;">
			<g>
				<path d="M253.684,168.268c0-12.345-10.74-22.35-23.988-22.35c-0.2,0-0.404,0.008-0.608,0.014
					c-4.188-6.549-11.854-10.938-20.625-10.938c-13.248,0-23.983,10.007-23.983,22.35c0,0.161,0.012,0.318,0.014,0.479
					c-7.244,3.851-12.135,11.104-12.135,19.433c0,12.35,10.734,22.354,23.983,22.354c0.753,0,1.497-0.038,2.229-0.104
					c4.4,4.971,11.062,8.137,18.513,8.137c12.245,0,22.339-8.555,23.799-19.595C248.49,184.295,253.684,176.85,253.684,168.268z" style="fill:#D7F7E4;"></path>
				<path d="M217.083,209.143c-7.355,0-14.282-2.938-19.128-8.086c-0.552,0.035-1.093,0.053-1.614,0.053
					c-14.052,0-25.483-10.7-25.483-23.854c0-8.271,4.622-15.974,12.125-20.311c0.228-12.967,11.57-23.451,25.479-23.451
					c8.617,0,16.744,4.166,21.42,10.925c13.969,0.093,25.302,10.756,25.302,23.849c0,8.63-4.935,16.519-12.933,20.765
					C240.311,200.552,229.639,209.143,217.083,209.143z M199.191,197.944l0.502,0.567c4.293,4.85,10.632,7.631,17.39,7.631
					c11.341,0,20.933-7.863,22.312-18.291l0.105-0.795l0.719-0.354c7.38-3.64,11.965-10.704,11.965-18.435
					c0-11.496-10.088-20.85-22.488-20.85c-0.145,0-0.291,0.005-0.438,0.009l-0.976,0.028l-0.458-0.715
					c-4.042-6.32-11.461-10.246-19.361-10.246c-12.397,0-22.483,9.354-22.483,20.85l0.024,1.375l-0.807,0.429
					c-6.994,3.718-11.339,10.656-11.339,18.108c0,11.499,10.086,20.854,22.483,20.854c0.666,0,1.371-0.033,2.096-0.098
					L199.191,197.944z" style="fill:#CCCCDE;"></path>
			</g>
			<path d="M229.292,145.111c-0.206,0-0.409,0.011-0.614,0.016
				c-3.354-5.251-8.949-9.111-15.558-10.438c5.229,1.312,9.633,4.492,12.339,8.728c0.175-0.004,2.579,4.149,2.757,4.149
				c11.368,0,16.655,6.123,16.655,16.718c0,7.362-2.757,12.055-9.291,15.271c-1.252,9.473-9.915,16.813-20.423,16.813
				c-6.396,0-12.106-2.72-15.884-6.979c-0.631,0.055-1.271,0.086-1.916,0.086c-11.368,0-20.299-5.389-20.299-15.979
				c0-7.135,3.188-10.646,9.002-14.885c-0.156-0.918-0.806-8.987,1.353-11.142c5.116-5.116,7.435-9.515,12.011-11.784
				c-8.98,3.229-15.357,11.346-15.357,20.854c0,0.158,0.015,0.316,0.019,0.479c-7.246,3.847-12.14,11.104-12.14,19.429
				c0,12.345,10.738,22.352,23.988,22.352c0.754,0,1.496-0.032,2.231-0.102c4.401,4.968,11.06,8.134,18.509,8.134
				c12.245,0,22.338-8.555,23.799-19.594c7.615-3.741,12.813-11.189,12.813-19.771C253.279,155.118,242.541,145.111,229.292,145.111
				z" style="opacity:0.1;fill:#6E6E96;enable-background:new    ;"></path>
			<g>
				<path d="M195.15,180.355c0,0,12.422,2.431,12.422,14.588c0,0,3.345,20.646-9.584,35.259h29.853
					c-0.296-0.41-26.073-34.847,2.615-55.317C212.96,184.887,195.15,180.355,195.15,180.355z" style="fill:#EDE3DA;"></path>
				<path d="M227.841,231.702h-33.183l2.207-2.494c12.288-13.89,9.258-33.826,9.227-34.026l-0.02-0.238
					c0-9.771-9.034-12.57-10.906-13.045c-0.254-0.056-0.386-0.089-0.386-0.089l0.658-2.926c0,0,0.148,0.028,0.414,0.095
					c0.999,0.218,4.531,0.9,9.425,0.9c6.122,0,15.33-1.092,24.435-6.296l1.615,2.522c-7.106,5.071-11.325,11.482-12.537,19.054
					c-2.579,16.108,8.921,32.332,10.241,34.129l1.754,2.389L227.841,231.702z M201.134,228.702h23.868
					c-3.634-5.641-11.454-19.779-9.175-34.017c0.872-5.444,3.125-10.332,6.725-14.611c-6.594,2.236-12.737,2.805-17.274,2.805
					c-0.6,0-1.179-0.009-1.737-0.026c2.908,2.41,5.497,6.182,5.532,11.973C209.345,196.638,211.695,214.473,201.134,228.702z" style="fill:#CCCCDE;"></path>
			</g>
			<g>
				<path d="M203.018,155.975" style="fill:#D57E58;"></path>
			</g>
			<path d="M223.01,180.322c0,0-18.847,24.334-4.361,49.88h9.192
				C227.841,230.202,208.714,203.473,223.01,180.322z" style="opacity:0.11;fill:#6E6E96;enable-background:new    ;"></path>
		</g>
		<g style="display:inline;">
			<g>
				<path d="M89.418,166.416c0-13.111-11.408-23.738-25.479-23.738c-0.22,0-0.436,0.008-0.653,0.014
					c-4.443-6.954-12.589-11.612-21.907-11.612c-14.071,0-25.48,10.629-25.48,23.735c0,0.17,0.011,0.336,0.015,0.507
					c-7.695,4.086-12.889,11.795-12.889,20.642c0,13.105,11.407,23.735,25.479,23.735c0.8,0,1.59-0.041,2.372-0.104
					c4.674,5.271,11.745,8.639,19.659,8.639c13.007,0,23.729-9.082,25.279-20.81C83.903,183.439,89.418,175.531,89.418,166.416z" style="fill:#D7F7E4;"></path>
				<path d="M50.535,209.732c-7.796,0-15.142-3.122-20.277-8.591c-0.62,0.038-1.198,0.057-1.754,0.057
					c-14.876,0-26.979-11.32-26.979-25.235c0-8.773,4.911-16.939,12.877-21.52c0.213-13.744,12.233-24.864,26.977-24.864
					c9.147,0,17.764,4.424,22.703,11.599c14.81,0.073,26.836,11.367,26.836,25.238c0,9.149-5.242,17.508-13.734,21.992
					C75.152,200.621,63.844,209.732,50.535,209.732z M31.501,198.038l0.497,0.561c4.583,5.169,11.339,8.134,18.537,8.134
					c12.094,0,22.322-8.386,23.792-19.506l0.105-0.795l0.719-0.354c7.875-3.878,12.767-11.412,12.767-19.661
					c0-12.263-10.757-22.238-23.979-22.238c-0.162,0-0.321,0.005-0.48,0.01l-0.98,0.026l-0.457-0.715
					c-4.304-6.735-12.214-10.92-20.643-10.92c-13.223,0-23.98,9.975-23.98,22.235l0.036,1.397l-0.817,0.435
					c-7.459,3.96-12.093,11.362-12.093,19.316c0,12.261,10.757,22.235,23.979,22.235c0.689,0,1.425-0.032,2.251-0.1L31.501,198.038z" style="fill:#CCCCDE;"></path>
			</g>
			<path d="M63.511,141.822c-0.219,0-0.435,0.01-0.652,0.015
				c-3.562-5.577-9.506-9.678-16.525-11.085c5.553,1.393,10.231,4.771,13.106,9.27c0.186-0.004,2.739,4.406,2.928,4.406
				c12.076,0,17.692,6.506,17.692,17.758c0,7.82-2.929,12.806-9.87,16.222c-1.33,10.063-10.531,17.854-21.693,17.854
				c-6.792,0-12.859-2.886-16.871-7.412c-0.67,0.058-1.348,0.092-2.035,0.092c-12.076,0-21.561-5.723-21.561-16.975
				c0-7.574,3.391-11.308,9.561-15.807c-0.165-0.975-0.85-9.549,1.437-11.836c5.435-5.434,7.896-10.103,12.758-12.516
				c-9.541,3.43-16.313,12.051-16.313,22.146c0,0.17,0.01,0.338,0.014,0.508c-7.696,4.084-12.889,11.792-12.889,20.64
				c0,13.105,11.407,23.734,25.479,23.734c0.801,0,1.591-0.039,2.373-0.104c4.674,5.271,11.745,8.639,19.659,8.639
				c13.006,0,23.728-9.081,25.278-20.809c8.089-3.979,13.604-11.894,13.604-21.002C88.991,152.449,77.583,141.822,63.511,141.822z" style="opacity:0.1;fill:#6E6E96;enable-background:new    ;"></path>
			<g>
				<path d="M27.248,179.256c0,0,13.193,2.583,13.193,15.496c0,0,3.553,21.932-10.179,37.45h31.707
					c-0.314-0.437-27.694-37.015,2.777-58.759C46.163,184.066,27.248,179.256,27.248,179.256z" style="fill:#EDE3DA;"></path>
				<path d="M61.969,233.702H26.932l2.207-2.494c13.083-14.784,9.855-36.005,9.821-36.217l-0.019-0.239
					c0-10.454-9.661-13.443-11.658-13.948c-0.266-0.059-0.405-0.094-0.405-0.094l0.658-2.926c0,0,0.155,0.029,0.434,0.099
					c1.061,0.231,4.819,0.96,10.029,0.96c6.514,0,16.314-1.163,26.002-6.701l1.616,2.522c-7.567,5.4-12.06,12.228-13.353,20.293
					c-2.748,17.136,9.488,34.414,10.893,36.328l1.751,2.388L61.969,233.702z M33.418,230.702h25.708
					c-3.81-5.884-12.263-21.012-9.824-36.22c0.941-5.872,3.401-11.134,7.34-15.726c-7.116,2.464-13.756,3.086-18.643,3.086
					c-0.734,0-1.44-0.014-2.115-0.038c3.159,2.54,6.021,6.566,6.057,12.829C42.226,196.521,44.755,215.578,33.418,230.702z" style="fill:#CCCCDE;"></path>
			</g>
			<g>
				<path d="M35.603,153.357" style="fill:#D57E58;"></path>
			</g>
			<path d="M56.838,179.221c0,0-20.02,25.848-4.633,52.981h9.764
				C61.969,232.202,41.654,203.811,56.838,179.221z" style="opacity:0.11;fill:#6E6E96;enable-background:new    ;"></path>
		</g>
	</g>
	<path d="M210.75,63.892h-23.333c-0.828,0-1.5-0.671-1.5-1.5
		s0.672-1.5,1.5-1.5h23.333c0.828,0,1.5,0.671,1.5,1.5S211.578,63.892,210.75,63.892z" style="opacity:0.44;fill:#FFFFFF;enable-background:new    ;"></path>
	<path d="M201.084,73.226H174.75c-0.828,0-1.5-0.671-1.5-1.5s0.672-1.5,1.5-1.5h26.334
		c0.828,0,1.5,0.671,1.5,1.5S201.912,73.226,201.084,73.226z" style="fill:#FFFFFF;"></path>
	<path d="M219.417,73.226h-6.667c-0.828,0-1.5-0.671-1.5-1.5
		s0.672-1.5,1.5-1.5h6.667c0.828,0,1.5,0.671,1.5,1.5S220.245,73.226,219.417,73.226z" style="opacity:0.44;fill:#FFFFFF;enable-background:new    ;"></path>
	<path d="M54.947,145.066H36.52c-0.829,0-1.5-0.672-1.5-1.5s0.671-1.5,1.5-1.5h18.427
		c0.829,0,1.5,0.672,1.5,1.5S55.775,145.066,54.947,145.066z" style="fill:#FFFFFF;"></path>
	<path d="M195.75,209.227h-8c-0.828,0-1.5-0.672-1.5-1.5
		s0.672-1.5,1.5-1.5h8c0.828,0,1.5,0.672,1.5,1.5S196.578,209.227,195.75,209.227z" style="opacity:0.61;fill:#FFFFFF;enable-background:new    ;"></path>
	<path d="M189.75,198.559h-14c-0.828,0-1.5-0.672-1.5-1.5s0.672-1.5,1.5-1.5h14c0.828,0,1.5,0.672,1.5,1.5
		S190.578,198.559,189.75,198.559z" style="fill:#FFFFFF;"></path>
	<path d="M46.242,154.344h-11c-0.829,0-1.5-0.672-1.5-1.5
		s0.671-1.5,1.5-1.5h11c0.829,0,1.5,0.672,1.5,1.5S47.071,154.344,46.242,154.344z" style="opacity:0.44;fill:#FFFFFF;enable-background:new    ;"></path>
	<g>
		<path d="M217.252,126.016c0.764-2.338,3.152-5.208,5.314-6.382l0.01-0.004c2.166-1.173,2.166-3.09,0-4.261
			l-0.01-0.006c-2.162-1.171-4.676-3.812-5.584-5.865c-0.909-2.056-2.396-2.056-3.31,0c-0.907,2.056-3.422,4.694-5.589,5.865
			l-0.011,0.006c-2.165,1.171-2.165,3.087,0,4.261l0.011,0.004c2.167,1.171,4.553,4.044,5.314,6.382l0.543,1.652
			c0.764,2.337,2,2.337,2.769,0L217.252,126.016z" style="fill:#FFFFFF;"></path>
	</g>
	<g>
		<path d="M24.63,58.27c0.713-2.19,2.953-4.88,4.981-5.977l0.008-0.004c2.024-1.098,2.024-2.894,0-3.99
			l-0.008-0.005c-2.025-1.098-4.38-3.569-5.232-5.495c-0.851-1.924-2.245-1.924-3.094,0c-0.854,1.926-3.209,4.397-5.232,5.495
			l-0.01,0.005c-2.023,1.097-2.023,2.893,0,3.99l0.01,0.004c2.023,1.097,4.269,3.788,4.983,5.977l0.503,1.55
			c0.715,2.189,1.88,2.189,2.593,0L24.63,58.27z" style="fill:#FFB0B8;"></path>
	</g>
	<g>
		<path d="M10.126,200.748c0.648-1.99,2.683-4.434,4.522-5.43l0.009-0.004c1.838-0.996,1.838-2.627,0-3.623
			l-0.009-0.008c-1.841-0.99-3.977-3.24-4.75-4.986s-2.04-1.746-2.813,0c-0.771,1.746-2.911,3.996-4.75,4.986l-0.007,0.008
			c-1.84,0.994-1.84,2.625,0,3.623l0.007,0.004c1.84,0.996,3.874,3.441,4.522,5.43l0.458,1.404c0.647,1.99,1.708,1.99,2.354,0
			L10.126,200.748z" style="fill:#7FDCFF;"></path>
	</g>
	<g>
		<path d="M191.923,29.909c0.489-1.505,2.029-3.354,3.423-4.105l0.006-0.003c1.393-0.756,1.393-1.991,0-2.744
			l-0.006-0.003c-1.392-0.755-3.01-2.453-3.596-3.776c-0.585-1.322-1.544-1.322-2.127,0c-0.587,1.323-2.205,3.021-3.596,3.776
			l-0.008,0.003c-1.39,0.753-1.39,1.987,0,2.744l0.008,0.003c1.391,0.753,2.93,2.603,3.424,4.105l0.347,1.063
			c0.491,1.508,1.291,1.508,1.78,0L191.923,29.909z" style="fill:#B6FF7F;"></path>
	</g>
	<g>
		<path d="M216.051,256.688c0.488-1.504,2.028-3.354,3.422-4.104l0.008-0.002
			c1.391-0.756,1.391-1.992,0-2.746l-0.008-0.002c-1.392-0.754-3.006-2.453-3.596-3.775c-0.585-1.322-1.544-1.322-2.127,0
			c-0.587,1.322-2.203,3.021-3.596,3.775l-0.006,0.002c-1.39,0.754-1.39,1.99,0,2.746l0.009,0.002
			c1.392,0.754,2.93,2.604,3.422,4.104l0.348,1.065c0.49,1.508,1.291,1.508,1.779,0L216.051,256.688z" style="fill:#FFB0B8;"></path>
	</g>
	<g>
		<path d="M69.645,116.914c0.489-1.505,2.028-3.356,3.422-4.107l0.006-0.003c1.391-0.754,1.391-1.989,0-2.742
			l-0.006-0.003c-1.392-0.757-3.008-2.453-3.596-3.776c-0.584-1.322-1.543-1.322-2.127,0c-0.586,1.323-2.203,3.019-3.594,3.776
			l-0.007,0.003c-1.39,0.753-1.39,1.987,0,2.742l0.007,0.003c1.391,0.753,2.931,2.604,3.422,4.107l0.348,1.063
			c0.49,1.507,1.292,1.507,1.779,0L69.645,116.914z" style="fill:#FFFFFF;"></path>
	</g>
</g>
<g id="Layer_3_1_">
	<rect height="76" width="15" style="fill:#BAF5DE;" y="93.059" x="58.499"></rect>
	<rect height="133.375" width="15" style="fill:#87DAFF;" y="93.059" x="72.917"></rect>
	<rect height="96.375" width="15" style="fill:#FFEA80;" y="93.059" x="87.917"></rect>
	<rect height="133.375" width="15" style="fill:#F58787;" y="93.059" x="102.584"></rect>
	<rect height="133.375" width="15" style="fill:#BAF5DE;" y="93.059" x="116.916"></rect>
	<rect height="133.375" width="15" style="fill:#87DAFF;" y="93.059" x="131.335"></rect>
	<rect height="96.375" width="15" style="fill:#FFEA80;" y="93.059" x="146.335"></rect>
	<rect height="73" width="15" style="fill:#F58787;" y="93.059" x="161.002"></rect>
</g>
<g id="Layer_2">
	<path d="M176.273,98.038c0,5.847-4.784,10.63-10.631,10.63H67.57c-5.847,0-10.63-4.784-10.63-10.63V65.191
		c0-5.847,4.784-10.63,10.63-10.63h98.073c5.847,0,10.631,4.784,10.631,10.63V98.038z" style="fill:#E0E0FF;"></path>
	<g>
		<path d="M176.273,86.27h10.004c1.675,0,3.269,0.712,4.486,2.007c1.274,1.354,1.978,3.158,1.978,5.079
			v35.069c0,3.908-3.179,7.088-7.087,7.088H129.83c-7.815,0-14.173,6.358-14.173,14.173v12.032l0,0c0,1.958,1.586,3.543,3.543,3.543
			c1.956,0,3.543-1.585,3.543-3.543l0,0v-12.032c0-3.906,3.179-7.086,7.086-7.086h55.823c7.815,0,14.175-6.357,14.175-14.175V93.356
			c0-3.734-1.388-7.262-3.903-9.936c-2.572-2.732-5.999-4.237-9.646-4.237h-10.004l0,0c-1.959,0-3.545,1.586-3.545,3.543
			S174.314,86.27,176.273,86.27L176.273,86.27z" style="fill:#6E6E96;"></path>
	</g>
	<path d="M134.023,209.055c0,3.897-3.188,7.088-7.086,7.088h-14.733c-3.898,0-7.087-3.189-7.087-7.088
		v-40.252c0-3.897,3.189-7.087,7.087-7.087h14.733c3.898,0,7.086,3.188,7.086,7.087V209.055z" style="fill:#E0E0FF;"></path>
	<path d="M165.797,77.593H65.57V64.837h100.227V77.593z" style="opacity:0.6;fill:#FAFAFF;enable-background:new    ;"></path>
	<path d="M178.398,105.232H55.522v-7.087h122.876V105.232z" style="opacity:0.13;fill:#6E6E96;enable-background:new    ;"></path>
	<rect height="38.27" width="7.676" style="opacity:0.75;fill:#FFFFFF;enable-background:new    ;" y="169.723" x="112.913"></rect>
	<path d="M130.48,209.055c0,1.953-1.59,3.543-3.543,3.543h-14.733c-1.954,0-3.543-1.59-3.543-3.543v-40.252
		c0-1.953,1.59-3.544,3.543-3.544h14.733c1.954,0,3.543,1.591,3.543,3.544V209.055z M137.568,168.803
		c0-5.861-4.771-10.631-10.631-10.631h-14.733c-5.862,0-10.63,4.77-10.63,10.631v40.252c0,5.861,4.769,10.631,10.63,10.631h14.733
		c5.861,0,10.631-4.77,10.631-10.631V168.803z" style="fill:#6E6E96;"></path>
	<path d="M172.729,98.038c0,3.908-3.18,7.087-7.086,7.087H67.57c-3.908,0-7.087-3.179-7.087-7.087V65.191
		c0-3.908,3.179-7.087,7.087-7.087h98.073c3.906,0,7.086,3.179,7.086,7.087V98.038z M179.816,65.191
		c0-7.815-6.358-14.174-14.174-14.174H67.57c-7.815,0-14.174,6.358-14.174,14.174v32.847c0,7.815,6.358,14.174,14.174,14.174h98.073
		c7.814,0,14.174-6.358,14.174-14.174V65.191z" style="fill:#6E6E96;"></path>
</g>
</svg>
